<?xml version="1.0" standalone="no"?>
<!DOCTYPE svg PUBLIC "-//W3C//DTD SVG 1.1//EN" "http://www.w3.org/Graphics/SVG/1.1/DTD/svg11.dtd">
<!--Generator: Xara Xtreme (www.xara.com), SVG filter version: 1.0.0.13-->
<svg stroke-width="0.501" stroke-linejoin="bevel" fill-rule="evenodd" xmlns:xlink="http://www.w3.org/1999/xlink" xmlns="http://www.w3.org/2000/svg" version="1.1" overflow="visible" width="48pt" height="48pt" viewBox="0 0 48 48">
 <defs>
  <marker id="DefaultArrow2" markerUnits="strokeWidth" viewBox="0 0 1 1" markerWidth="1" markerHeight="1" overflow="visible" orient="auto">
   <!-- REF_ARROW_STRAIGHT (-2) -->
   <g transform="scale(0.0092592592)">
    <!-- 1/108 -->
    <path d="M -9 54 L -9 -54 L 117 0 z"/>
   </g>
  </marker>
  <marker id="DefaultArrow3" markerUnits="strokeWidth" viewBox="0 0 1 1" markerWidth="1" markerHeight="1" overflow="visible" orient="auto">
   <!-- REF_ARROW_ANGLED -->
   <g transform="scale(0.0092592592)">
    <path d="M -27 54 L -9 0 L -27 -54 L 135 0 z"/>
   </g>
  </marker>
  <marker id="DefaultArrow4" markerUnits="strokeWidth" viewBox="0 0 1 1" markerWidth="1" markerHeight="1" overflow="visible" orient="auto">
   <!-- REF_ARROW_ROUNDED -->
   <g transform="scale(0.0092592592)">
    <path d="M -9,0 L -9,-45 C -9,-51.708 2.808,-56.580 9,-54 L 117,-9 C 120.916,-7.369 126.000,-4.242 126,0 C 126,4.242 120.916,7.369 117,9 L 9,54 C 2.808,56.580 -9,51.708 -9,45 z"/>
   </g>
  </marker>
  <marker id="DefaultArrow5" markerUnits="strokeWidth" viewBox="0 0 1 1" markerWidth="1" markerHeight="1" overflow="visible" orient="auto">
   <!-- REF_ARROW_SPOT -->
   <g transform="scale(0.0092592592)">
    <path d="M -54, 0 C -54,29.807 -29.807,54 0,54 C 29.807,54 54,29.807 54,0 C 54,-29.807 29.807,-54 0,-54 C -29.807,-54 -54,-29.807 -54,0 z"/>
   </g>
  </marker>
  <marker id="DefaultArrow6" markerUnits="strokeWidth" viewBox="0 0 1 1" markerWidth="1" markerHeight="1" overflow="visible" orient="auto">
   <!-- REF_ARROW_DIAMOND -->
   <g transform="scale(0.0092592592)">
    <path d="M -63,0 L 0,63 L 63,0 L 0,-63 z"/>
   </g>
  </marker>
  <marker id="DefaultArrow7" markerUnits="strokeWidth" viewBox="0 0 1 1" markerWidth="1" markerHeight="1" overflow="visible" orient="auto">
   <!-- REF_ARROW_FEATHER -->
   <g transform="scale(0.0092592592)">
    <path d="M 18,-54 L 108,-54 L 63,0 L 108,54 L 18, 54 L -36,0 z"/>
   </g>
  </marker>
  <marker id="DefaultArrow8" markerUnits="strokeWidth" viewBox="0 0 1 1" markerWidth="1" markerHeight="1" overflow="visible" orient="auto">
   <!-- REF_ARROW_FEATHER2 -->
   <g transform="scale(0.0092592592)">
    <path d="M -36,0 L 18,-54 L 54,-54 L 18,-18 L 27,-18 L 63,-54 L 99,-54 L 63,-18 L 72,-18 L 108,-54 L 144,-54 L 90,0 L 144,54 L 108,54 L 72,18 L 63,18 L 99,54 L 63,54 L 27,18 L 18,18 L 54,54 L 18,54 z"/>
   </g>
  </marker>
  <marker id="DefaultArrow9" markerUnits="strokeWidth" viewBox="0 0 1 1" markerWidth="1" markerHeight="1" overflow="visible" orient="auto">
   <!-- REF_ARROW_HOLLOWDIAMOND -->
   <g transform="scale(0.0092592592)">
    <path d="M 0,45 L -45,0 L 0, -45 L 45, 0 z M 0, 63 L-63, 0 L 0, -63 L 63, 0 z"/>
   </g>
  </marker>
  <filter id="StainedFilter">
   <feBlend mode="multiply" in2="BackgroundImage" in="SourceGraphic" result="blend"/>
   <feComposite in="blend" in2="SourceAlpha" operator="in" result="comp"/>
  </filter>
  <filter id="BleachFilter">
   <feBlend mode="screen" in2="BackgroundImage" in="SourceGraphic" result="blend"/>
   <feComposite in="blend" in2="SourceAlpha" operator="in" result="comp"/>
  </filter>
  <filter id="InvertTransparencyBitmapFilter">
   <feComponentTransfer>
    <feFuncR type="gamma" amplitude="1.055" exponent=".416666666" offset="-0.055"/>
    <feFuncG type="gamma" amplitude="1.055" exponent=".416666666" offset="-0.055"/>
    <feFuncB type="gamma" amplitude="1.055" exponent=".416666666" offset="-0.055"/>
   </feComponentTransfer>
   <feComponentTransfer>
    <feFuncR type="linear" slope="-1" intercept="1"/>
    <feFuncG type="linear" slope="-1" intercept="1"/>
    <feFuncB type="linear" slope="-1" intercept="1"/>
    <feFuncA type="linear" slope="1" intercept="0"/>
   </feComponentTransfer>
   <feComponentTransfer>
    <feFuncR type="gamma" amplitude="1" exponent="2.4" offset="0"/>
    <feFuncG type="gamma" amplitude="1" exponent="2.4" offset="0"/>
    <feFuncB type="gamma" amplitude="1" exponent="2.4" offset="0"/>
   </feComponentTransfer>
  </filter>
  <linearGradient id="LinearGradient" gradientUnits="userSpaceOnUse" x1="0" y1="0" x2="0.33" y2="-23.107" gradientTransform="translate(24.883 25.836)">
   <stop offset="0" stop-color="#afaead"/>
   <stop offset="1" stop-color="#3e3e3e"/>
  </linearGradient>
  <linearGradient id="LinearGradient_1" gradientUnits="userSpaceOnUse" x1="0" y1="0" x2="14.08" y2="-3.45" gradientTransform="translate(17.323 22.767)">
   <stop offset="0" stop-color="#c3c2c1"/>
   <stop offset="1" stop-color="#eaeaea"/>
  </linearGradient>
  <radialGradient id="RadialGradient" gradientUnits="userSpaceOnUse" cx="0" cy="0" r="7.818" gradientTransform="translate(26.814 11.549) rotate(103.786) scale(1 0.996163)">
   <stop offset="0" stop-color="#b8d71d"/>
   <stop offset="1" stop-color="#849c0b"/>
  </radialGradient>
  <linearGradient id="LinearGradient_2" gradientUnits="userSpaceOnUse" x1="0" y1="0" x2="3.866" y2="-6.074" gradientTransform="translate(19.844 23.282)">
   <stop offset="0" stop-color="#d3e679"/>
   <stop offset="1" stop-color="#a5ba3f"/>
  </linearGradient>
 </defs>
 <g id="Document" fill="none" stroke="black" font-family="Times New Roman" font-size="16" transform="scale(1 -1)">
  <g id="Spread" transform="translate(0 -48)">
   <g id="Layer 1">
    <path d="M 4.159,8.418 C 4.059,9.231 4.006,10.057 4.006,10.895 C 4.006,21.719 12.688,30.504 23.386,30.504 C 34.082,30.504 42.763,21.719 42.763,10.895 C 42.763,9.851 42.682,8.823 42.528,7.822 C 41.633,6.579 39.687,5.473 37.027,4.618 C 38.804,5.29 40.112,6.122 40.76,7.09 C 40.897,8.051 40.752,9.675 40.752,10.677 C 40.752,21.07 33.005,29.504 23.461,29.504 C 13.914,29.504 6.167,21.07 6.167,10.677 C 6.167,9.872 6.021,8.471 6.11,7.69 C 6.666,6.309 8.468,5.15 11.086,4.293 C 7.423,5.309 4.875,6.764 4.159,8.418 Z" stroke-opacity="0.325490" stroke="none" fill="#434343" stroke-width="0.99" marker-start="none" marker-end="none" stroke-miterlimit="79.8403193612775" fill-opacity="0.325490"/>
    <path d="M 23.51,2.794 C 30.324,3.168 33.341,3.77 35.725,4.618 C 37.332,5.29 38.524,5.222 39.11,6.19 C 39.234,7.151 39.11,9.265 39.093,10.677 C 39.093,21.07 32.088,29.504 23.459,29.503 L 23.461,29.504 C 33.005,29.504 40.752,21.07 40.752,10.677 C 40.752,9.675 40.897,8.051 40.76,7.09 C 40.112,6.122 38.804,5.29 37.027,4.618 C 33.512,3.488 28.752,2.794 23.515,2.794 C 22.335,2.794 21.179,2.829 23.51,2.794 Z M 11.086,4.293 C 8.468,5.15 6.666,6.309 6.11,7.69 C 6.021,8.471 6.167,9.872 6.167,10.677 C 6.167,21.058 13.896,29.485 23.434,29.503 C 14.81,29.485 7.82,21.058 7.82,10.677 C 7.535,9.49 7.529,7.496 7.61,6.715 C 8.66,5.365 9.901,5.15 12.268,4.293 C 14.56,3.59 17.336,3.098 23.431,2.796 C 16.69,3.098 13.621,3.59 11.086,4.293 Z" stroke-opacity="0.282353" stroke="none" fill="#434343" stroke-width="0.99" marker-start="none" marker-end="none" stroke-miterlimit="79.8403193612775" fill-opacity="0.282353"/>
    <path d="M 23.51,2.794 L 23.497,2.794 C 29.543,3.168 36.715,4.472 37.235,5.44 C 37.345,6.401 37.337,9.265 37.322,10.677 C 37.322,21.07 31.106,29.504 23.448,29.503 L 23.459,29.503 C 32.088,29.504 39.093,21.07 39.093,10.677 C 39.11,9.265 39.234,7.151 39.11,6.19 C 38.524,5.222 37.332,5.29 35.725,4.618 C 33.341,3.77 30.324,3.168 23.51,2.794 Z M 12.268,4.293 C 9.901,5.15 8.66,5.365 7.61,6.715 C 7.529,7.496 7.535,9.49 7.82,10.677 C 7.82,21.027 14.769,29.435 23.332,29.502 C 15.735,29.434 9.485,20.89 9.485,10.54 C 9.233,9.353 9.338,6.896 9.41,6.115 C 10.339,4.769 17.966,3.108 23.364,2.799 C 17.318,3.101 14.552,3.592 12.268,4.293 Z" stroke-opacity="0.117647" stroke="none" fill="#434343" stroke-width="0.99" marker-start="none" marker-end="none" stroke-miterlimit="79.8403193612775" fill-opacity="0.117647"/>
    <path d="M 3.2,7.096 L 3.161,7.244 C 3.055,8.137 3,9.044 3,9.964 C 3,21.834 12.103,31.525 23.386,31.525 C 34.667,31.525 43.769,21.834 43.769,9.964 C 43.769,8.816 43.684,7.688 43.521,6.59 L 43.428,6.354 C 41.131,3.01 32.913,0.15 23.48,0.15 C 13.452,0.15 4.763,3.314 3.2,7.096 Z M 42.423,6.895 L 42.584,8.341 C 42.623,8.876 42.644,9.417 42.644,9.964 C 42.644,21.275 33.986,30.4 23.386,30.4 C 12.784,30.4 4.125,21.275 4.125,9.964 L 4.272,7.463 L 4.55,6.956 C 6.484,4.109 14.011,1.275 23.48,1.275 C 32.294,1.275 39.586,3.804 42.069,6.459 L 42.423,6.895 Z" stroke-width="0.5" stroke="none" fill="#ffffff" fill-rule="evenodd" marker-start="none" marker-end="none" stroke-miterlimit="79.8403193612775" fill-opacity="0.337255"/>
    <path d="M 17.797,34.837 L 17.05,34.898 C 17.354,38.574 20.353,40.552 23.383,40.652 C 26.424,40.752 29.587,38.978 30.257,35.123 L 29.518,34.994 C 28.923,38.418 26.144,39.992 23.408,39.902 C 20.67,39.812 18.063,38.051 17.797,34.837 Z" stroke-width="0.5" stroke="none" fill="#82971f" fill-rule="evenodd" marker-start="none" marker-end="none" stroke-miterlimit="79.8403193612775"/>
    <path d="M 14.107,34.962 L 13.36,35.023 C 14.307,46.489 31.866,47.331 33.948,35.359 L 33.209,35.23 C 31.261,46.428 14.974,45.456 14.107,34.962 Z" stroke-width="0.5" stroke="none" fill="#82971f" fill-rule="evenodd" marker-start="none" marker-end="none" stroke-miterlimit="79.8403193612775"/>
    <path d="M 23.496,11.033 C 33.581,11.033 41.768,8.918 41.768,6.314 C 41.768,3.709 33.581,1.594 23.496,1.594 C 13.41,1.594 5.223,3.709 5.223,6.314 C 5.223,8.918 13.41,11.033 23.496,11.033 Z" stroke-opacity="0.207843" stroke="none" fill="#ffffff" stroke-width="0.5" marker-start="none" marker-end="none" stroke-miterlimit="79.8403193612775" fill-opacity="0.207843"/>
    <path d="M 13.6,7.684 L 23.456,3.192 C 24.497,3.192 39.548,7.55 39.481,8.086 L 28.418,11.237 C 27.412,11.237 13.044,8.513 13.6,7.684 Z" stroke="none" stroke-width="0.5" fill="#000000" stroke-opacity="0.098039" marker-start="none" marker-end="none" stroke-miterlimit="79.8403193612775" fill-opacity="0.098039"/>
    <path d="M 13.784,7.583 L 23.338,3.309 C 24.379,3.309 35.91,6.594 35.893,7.13 L 25.266,10.416 C 24.26,10.416 13.228,8.412 13.784,7.583 Z" stroke="none" stroke-width="0.5" fill="#000000" stroke-opacity="0.125490" marker-start="none" marker-end="none" stroke-miterlimit="79.8403193612775" fill-opacity="0.125490"/>
    <path d="M 13.968,7.483 L 23.221,3.426 C 24.262,3.426 32.273,5.638 32.306,6.175 L 22.115,9.595 C 21.109,9.595 13.413,8.312 13.968,7.483 Z" stroke="none" stroke-width="0.5" fill="#000000" stroke-opacity="0.149020" marker-start="none" marker-end="none" stroke-miterlimit="79.8403193612775" fill-opacity="0.149020"/>
    <path d="M 14.152,7.382 L 23.104,3.543 C 24.144,3.543 28.635,4.682 28.719,5.219 L 18.963,8.774 C 17.957,8.774 13.597,8.211 14.152,7.382 Z" stroke="none" stroke-width="0.5" fill="#000000" stroke-opacity="0.176471" marker-start="none" marker-end="none" stroke-miterlimit="79.8403193612775" fill-opacity="0.176471"/>
    <path d="M 14.337,7.282 L 22.987,3.661 C 24.027,3.661 24.998,3.727 25.132,4.264 L 15.812,7.953 C 14.806,7.953 13.782,8.111 14.337,7.282 Z" stroke="none" stroke-width="0.5" fill="#000000" stroke-opacity="0.200000" marker-start="none" marker-end="none" stroke-miterlimit="79.8403193612775" fill-opacity="0.200000"/>
    <path d="M 21.791,3.985 L 21.739,4.007 L 13.732,7.941 L 13.487,8.14 C 13.19,8.517 12.202,9.181 12.007,9.923 L 12.001,10.015 L 11.958,10.084 C 11.775,10.468 11.705,10.865 11.788,11.255 L 11.996,11.763 L 19.723,27.225 L 19.856,27.411 C 20.662,28.216 21.109,28.586 22.568,28.586 L 22.796,28.548 L 30.527,25.926 L 30.77,25.784 L 30.901,25.699 C 30.977,25.65 31.08,25.58 31.195,25.493 L 31.678,25.015 L 32.252,24.821 L 32.495,24.679 L 32.626,24.594 L 32.722,24.522 L 32.782,24.535 L 32.992,24.324 L 33.099,24.245 C 33.283,24.091 33.474,23.905 33.618,23.699 C 33.987,23.17 34.118,22.509 33.847,21.76 L 33.487,21.073 L 25.711,5.279 L 25.391,4.827 L 25.119,4.293 C 24.886,3.862 24.388,3.819 24.332,3.811 C 24.242,3.799 23.927,3.781 23.991,3.787 L 24.261,3.865 C 23.606,3.601 22.782,3.592 21.791,3.985 Z" stroke-opacity="0.498039" stroke="none" fill="#000000" marker-start="none" marker-end="none" fill-opacity="0.498039"/>
    <path d="M 12.736,10.306 C 12.47,9.896 13.582,9.17 14.046,8.58 L 22.053,4.646 C 23.673,4.004 24.608,4.65 25.074,5.594 L 32.853,21.387 C 34.095,23.18 32.264,23.906 32.024,24.148 L 24.293,26.77 C 23.083,26.77 22.805,26.523 22.085,25.805 L 12.736,10.306 Z" stroke="none" stroke-width="0.514" marker-start="none" marker-end="none" stroke-miterlimit="79.8403193612775" fill="url(#LinearGradient)"/>
    <path d="M 12.629,11.448 C 12.364,11.038 12.41,10.55 12.873,9.962 L 20.673,6.096 C 22.292,5.453 23.053,6.279 23.258,6.202 L 31.127,22.491 C 32.369,24.286 30.539,25.011 30.299,25.253 L 22.568,27.875 C 21.357,27.875 21.08,27.628 20.359,26.908 L 12.629,11.448 Z" stroke="none" stroke-width="0.514" marker-start="none" marker-end="none" stroke-miterlimit="79.8403193612775" fill="url(#LinearGradient_1)"/>
    <path d="M 16.461,13.066 L 23.02,10.374 C 23.476,10.374 23.822,10.42 24.055,10.651 L 29.714,22.316 C 29.714,22.762 29.764,22.972 29.576,23.351 L 22.949,25.767 C 22.351,25.767 21.848,25.632 21.569,25.353 L 16.186,14.723 C 15.849,14.049 15.945,13.279 16.461,13.066 Z" fill="#ffffff" stroke="none" stroke-width="0.514" marker-start="none" marker-end="none" stroke-miterlimit="79.8403193612775"/>
    <path d="M 16.6,13.757 L 23.158,11.065 C 23.616,11.065 23.961,11.109 24.193,11.341 L 29.853,23.007 C 29.853,23.451 29.904,23.661 29.714,24.042 L 23.088,26.458 C 22.49,26.458 21.987,26.323 21.708,26.043 L 16.325,15.413 C 15.986,14.739 16.083,13.97 16.6,13.757 Z" stroke="none" stroke-width="0.514" marker-start="none" marker-end="none" stroke-miterlimit="79.8403193612775" fill="url(#RadialGradient)"/>
    <path d="M 18.878,13.206 L 28.473,23.973 L 23.433,25.904 C 21.863,25.904 22.211,25.442 21.432,24.663 L 16.738,15.138 C 16.268,14.669 16.811,14.299 16.945,14.033 L 18.878,13.206 Z" stroke="none" stroke-width="0.514" marker-start="none" marker-end="none" stroke-miterlimit="79.8403193612775" fill="url(#LinearGradient_2)"/>
    <path d="M 16.533,14.349 L 15.838,14.684 L 21.36,26.142 L 21.535,26.32 C 21.916,26.51 22.078,26.706 22.812,26.706 L 22.941,26.683 L 29.705,24.266 L 29.848,24.176 L 29.883,24.141 C 29.974,24.046 30.019,23.946 30.028,23.812 C 30.031,23.775 30.031,23.731 30.031,23.696 L 29.502,23.696 L 29.446,23.539 L 22.748,25.932 L 22.647,25.929 C 22.405,25.914 22.307,25.862 22.135,25.766 L 22,25.693 L 16.533,14.349 Z" stroke-width="0.5" stroke="none" fill="#939291" fill-rule="evenodd" marker-start="none" marker-end="none" stroke-miterlimit="79.8403193612775"/>
    <path d="M 22.165,5.437 L 21.967,5.45 L 21.765,5.482 L 21.558,5.537 L 21.35,5.614 L 21.169,5.701 L 13.202,9.633 L 21.592,6.658 L 21.748,6.59 L 21.866,6.551 L 21.973,6.526 L 22.073,6.514 L 22.165,6.511 L 22.248,6.518 L 22.328,6.533 L 22.407,6.556 L 22.486,6.585 L 22.555,6.619 L 22.721,6.721 L 22.875,6.845 L 22.968,6.933 L 31.355,23.09 L 31.344,23.064 L 31.405,23.191 L 31.438,23.311 L 31.451,23.449 L 31.449,23.598 L 31.432,23.753 L 31.407,23.911 L 31.38,24.067 L 31.39,24.231 L 31.524,24.129 L 31.619,23.991 L 31.702,23.835 L 31.771,23.664 L 31.819,23.481 L 31.84,23.289 L 31.827,23.087 L 31.78,22.91 L 31.769,22.884 L 23.914,6.347 L 23.794,6.186 L 23.589,6.001 L 23.339,5.813 L 23.063,5.651 L 22.896,5.577 L 22.729,5.518 L 22.55,5.473 L 22.362,5.446 L 22.165,5.437 Z" stroke-width="0.5" stroke="none" fill="#9a9191" fill-rule="evenodd" marker-start="none" marker-end="none" stroke-miterlimit="79.8403193612775"/>
    <path d="M 21.522,6.322 C 21.431,6.345 21.348,6.382 21.263,6.423 C 20.594,6.739 19.909,7.029 19.234,7.334 C 17.207,8.248 15.19,9.176 13.175,10.112 L 13.297,10.394 C 16.035,9.266 18.774,8.123 21.499,6.972 C 21.982,6.749 22.547,6.977 22.771,7.425 C 25.436,12.756 28.215,18.066 31.031,23.341 C 31.028,23.328 30.98,23.703 30.916,23.866 L 31.172,24.042 C 32.085,22.214 29.239,18.889 28.993,18.391 C 27.813,15.999 26.624,13.612 25.415,11.235 C 25.012,10.442 24.603,9.652 24.198,8.862 C 24.062,8.598 23.927,8.334 23.792,8.071 C 23.543,7.587 23.41,7.321 23.346,7.192 L 23.33,7.16 L 23.321,7.138 C 23.3,7.094 23.29,7.075 23.304,7.106 L 23.33,7.16 L 23.406,7.327 C 23.142,6.602 22.348,6.104 21.522,6.322 Z" stroke-width="0.5" stroke="none" fill="#ffffff" fill-rule="evenodd" marker-start="none" marker-end="none" stroke-miterlimit="79.8403193612775"/>
    <path d="M 15.851,9.314 L 15.386,9.587 L 17.281,12.81 L 17.746,12.537 L 15.851,9.314 Z" stroke-width="0.5" stroke="none" fill="#8f8f8f" fill-rule="evenodd" marker-start="none" marker-end="none" stroke-miterlimit="79.8403193612775"/>
    <path d="M 19.406,7.875 L 18.939,8.144 L 20.768,11.318 L 21.235,11.049 L 19.406,7.875 Z" stroke-width="0.5" stroke="none" fill="#8f8f8f" fill-rule="evenodd" marker-start="none" marker-end="none" stroke-miterlimit="79.8403193612775"/>
    <path d="M 23.517,8.624 L 13.854,12.834 L 14.069,13.329 L 23.732,9.119 L 23.517,8.624 Z" stroke-width="0.5" stroke="none" fill="#8f8f8f" fill-rule="evenodd" marker-start="none" marker-end="none" stroke-miterlimit="79.8403193612775"/>
    <path d="M 22.614,7.315 L 13.158,11.628 L 13.383,12.119 L 22.839,7.806 L 22.614,7.315 Z" stroke-width="0.5" stroke="none" fill="#8f8f8f" fill-rule="evenodd" marker-start="none" marker-end="none" stroke-miterlimit="79.8403193612775"/>
    <path d="M 23.771,4.508 L 23.708,4.545 C 23.67,4.593 23.662,4.675 23.675,4.8 L 23.791,4.838 C 23.872,4.863 23.96,4.866 24.051,4.864 L 24.109,4.863 L 24.202,4.876 L 24.772,6.127 C 24.98,6.571 25.19,7.015 25.396,7.46 C 26.355,9.538 27.333,11.606 28.333,13.665 C 29.332,15.722 30.354,17.769 31.394,19.807 C 31.542,20.098 31.691,20.389 31.84,20.681 C 31.988,20.972 32.137,21.263 32.286,21.555 C 32.363,21.705 32.569,22.185 32.753,22.461 C 32.847,22.603 32.82,22.696 32.788,22.866 C 32.724,23.2 32.444,23.475 32.226,23.694 L 32.388,23.944 C 32.764,23.693 33.145,23.188 33.197,22.728 C 33.209,22.616 33.206,22.507 33.172,22.412 C 33.153,22.361 33.05,22.202 33.088,22.257 C 32.95,21.96 32.812,21.663 32.675,21.367 C 32.537,21.07 32.399,20.773 32.262,20.477 C 32.124,20.18 31.986,19.883 31.849,19.587 C 31.711,19.29 31.574,18.993 31.436,18.697 C 31.297,18.401 31.162,18.102 31.023,17.808 C 30.883,17.512 30.739,17.218 30.599,16.923 C 30.458,16.628 30.315,16.332 30.175,16.039 C 30.034,15.745 29.891,15.448 29.751,15.155 C 29.61,14.861 29.468,14.564 29.327,14.271 C 29.185,13.977 29.045,13.68 28.903,13.387 C 28.759,13.093 28.611,12.801 28.467,12.508 C 28.323,12.215 28.176,11.921 28.032,11.629 C 27.887,11.336 27.74,11.043 27.596,10.751 C 27.451,10.458 27.306,10.163 27.161,9.872 C 27.015,9.58 26.872,9.285 26.726,8.994 C 26.579,8.702 26.426,8.411 26.279,8.121 C 26.131,7.83 25.98,7.538 25.832,7.248 C 25.683,6.957 25.534,6.665 25.386,6.375 C 25.237,6.084 25.089,5.791 24.939,5.502 C 24.788,5.212 24.646,4.917 24.493,4.63 C 24.419,4.493 24.072,4.509 23.927,4.495 L 23.804,4.493 L 23.775,4.487 L 23.771,4.508 Z" stroke-width="0.5" stroke="none" fill="#b2b2b2" fill-rule="evenodd" marker-start="none" marker-end="none" stroke-miterlimit="79.8403193612775"/>
    <path d="M 14.324,2.305 C 11.976,2.833 9.678,3.584 7.646,4.737 C 6.341,5.476 4.943,6.483 4.329,7.889 L 4.719,8.077 C 4.985,7.483 5.459,6.986 5.98,6.54 C 6.613,5.996 7.323,5.588 8.056,5.215 C 10.132,4.155 12.426,3.523 14.793,3.044 C 17.179,2.56 19.691,2.303 22.292,2.247 L 23.409,2.235 L 24.514,2.247 C 27.085,2.307 29.553,2.573 31.932,3.02 C 34.195,3.444 36.411,4.06 38.438,4.961 C 39.784,5.559 41.154,6.308 42.14,7.518 L 42.478,7.258 C 41.843,6.422 41.019,5.737 40.162,5.206 C 39.037,4.509 37.799,3.951 36.546,3.488 C 33.293,2.285 29.753,1.656 26.026,1.407 C 22.001,1.137 17.939,1.49 14.324,2.305 Z" stroke-width="0.5" stroke="none" fill="#3a3a3a" fill-rule="evenodd" marker-start="none" marker-end="none" stroke-miterlimit="79.8403193612775" fill-opacity="0.482353"/>
    <path d="M 30.125,28.546 C 35.388,27.211 42.132,19.145 41.362,6.888 C 39.786,5.416 35.978,3.67 33.227,3.536 C 37.207,8.631 36.876,23.24 30.125,28.546 Z" stroke-opacity="0.227451" stroke="none" fill="#ffffff" stroke-width="0.5" marker-start="none" marker-end="none" stroke-miterlimit="79.8403193612775" fill-opacity="0.227451"/>
    <path d="M 11.75,24.778 C 8.654,23.808 4.852,15.761 5.524,6.837 C 6.484,5.766 7.79,4.71 9.423,4.614 C 6.412,7.133 7.842,20.914 11.75,24.778 Z" stroke-opacity="0.227451" stroke="none" fill="#ffffff" stroke-width="0.258" marker-start="none" marker-end="none" stroke-miterlimit="79.8403193612775" fill-opacity="0.227451"/>
    <path d="M 19.606,34.095 C 19.606,36.342 21.431,38.167 23.68,38.167 C 25.927,38.167 27.752,36.342 27.752,34.095 C 27.752,31.846 25.927,30.021 23.68,30.021 C 21.431,30.021 19.606,31.846 19.606,34.095 Z M 26.627,34.095 C 26.627,35.721 25.306,37.042 23.68,37.042 C 22.052,37.042 20.731,35.721 20.731,34.095 C 20.731,32.467 22.052,31.146 23.68,31.146 C 25.306,31.146 26.627,32.467 26.627,34.095 Z" stroke-width="0.5" stroke="none" fill="#ffffff" fill-rule="evenodd" marker-start="none" marker-end="none" stroke-miterlimit="79.8403193612775" fill-opacity="0.462745"/>
    <path d="M 20.477,33.957 C 20.477,35.723 21.912,37.158 23.68,37.158 C 25.446,37.158 26.881,35.723 26.881,33.957 C 26.881,32.189 25.446,30.754 23.68,30.754 C 21.912,30.754 20.477,32.189 20.477,33.957 Z M 25.756,33.957 C 25.756,35.102 24.825,36.033 23.68,36.033 C 22.533,36.033 21.602,35.102 21.602,33.957 C 21.602,32.81 22.533,31.879 23.68,31.879 C 24.825,31.879 25.756,32.81 25.756,33.957 Z" stroke-width="0.5" stroke="none" fill="#000000" fill-rule="evenodd" marker-start="none" marker-end="none" stroke-miterlimit="79.8403193612775" fill-opacity="0.207843"/>
    <path d="M 16.784,35.047 C 16.762,35.391 16.834,35.759 16.903,36.071 C 17.308,37.902 18.642,39.423 20.319,40.235 C 20.9,40.516 21.527,40.725 22.19,40.845 C 25.035,41.36 27.913,40.337 29.448,38.062 C 29.674,37.725 29.875,37.377 30.035,37.007 C 30.257,36.491 30.477,35.889 30.496,35.283 C 30.499,35.155 30.478,35.022 30.47,34.895 C 30.244,35.342 30.093,35.822 29.884,36.276 C 29.588,36.913 29.217,37.517 28.732,38.055 C 27.326,39.61 25.285,40.386 23.046,40.207 C 22.78,40.185 22.518,40.154 22.266,40.107 C 21.216,39.911 20.266,39.517 19.425,38.9 C 18.459,38.19 17.741,37.207 17.332,36.142 C 17.15,35.669 17.031,35.159 16.845,34.688 C 16.824,34.804 16.791,34.927 16.784,35.047 Z" stroke-width="0.5" stroke="none" fill="#c8e43c" fill-rule="evenodd" marker-start="none" marker-end="none" stroke-miterlimit="79.8403193612775"/>
    <path d="M 13.501,37.339 C 14.049,39.155 15.196,40.815 16.784,42.01 C 18.149,43.037 19.713,43.718 21.435,44.026 C 22.095,44.144 22.772,44.212 23.486,44.222 C 24.396,44.234 25.278,44.136 26.099,43.958 C 27.509,43.65 28.814,43.103 29.978,42.299 C 31.665,41.132 32.959,39.436 33.628,37.58 C 33.913,36.787 34.108,36.003 34.132,35.073 C 33.851,35.785 33.637,36.539 33.331,37.236 C 32.888,38.242 32.333,39.179 31.582,40.032 C 30.018,41.805 27.96,42.888 25.688,43.287 C 24.745,43.452 23.712,43.518 22.7,43.441 C 22.281,43.408 21.879,43.357 21.481,43.283 C 19.841,42.977 18.346,42.349 17.039,41.373 C 15.531,40.246 14.436,38.706 13.829,37.022 C 13.565,36.291 13.4,35.504 13.181,34.753 C 13.109,35.669 13.255,36.524 13.501,37.339 Z" stroke-width="0.5" stroke="none" fill="#c8e43c" fill-rule="evenodd" marker-start="none" marker-end="none" stroke-miterlimit="79.8403193612775"/>
    <path d="M 10.816,34.911 L 10.069,34.972 C 11.316,50.078 34.487,51.219 37.235,35.407 L 36.496,35.278 C 33.882,50.316 11.983,49.045 10.816,34.911 Z" stroke-width="0.5" stroke="none" fill="#82971f" fill-rule="evenodd" marker-start="none" marker-end="none" stroke-miterlimit="79.8403193612775"/>
    <path d="M 10.241,38.122 C 10.985,40.507 12.506,42.68 14.6,44.253 C 16.398,45.604 18.461,46.49 20.73,46.897 C 21.597,47.052 22.491,47.142 23.431,47.154 C 27.07,47.198 30.317,46.068 32.891,43.957 C 34.771,42.413 36.076,40.453 36.877,38.304 C 37.157,37.551 37.402,36.735 37.508,35.902 C 37.539,35.648 37.541,35.387 37.558,35.133 C 37.225,36.098 36.953,37.095 36.556,38.029 C 35.983,39.375 35.237,40.638 34.246,41.779 C 32.173,44.163 29.405,45.621 26.373,46.156 C 25.114,46.377 23.729,46.466 22.377,46.36 C 21.816,46.315 21.276,46.248 20.745,46.149 C 18.553,45.74 16.544,44.897 14.808,43.58 C 12.802,42.058 11.34,40.01 10.549,37.743 C 10.208,36.768 10,35.731 9.752,34.71 C 9.709,35.944 9.905,37.047 10.241,38.122 Z" stroke-width="0.5" stroke="none" fill="#c8e43c" fill-rule="evenodd" marker-start="none" marker-end="none" stroke-miterlimit="79.8403193612775"/>
    <path d="M 18.505,29.151 C 25.427,31.299 32.228,29.257 33.681,24.592 C 35.133,19.928 30.691,14.396 23.768,12.248 C 16.846,10.1 10.045,12.142 8.592,16.807 C 7.14,21.471 11.582,27.003 18.505,29.151 Z" stroke="none" stroke-width="0.5" fill="#ffffff" stroke-opacity="0.098039" marker-start="none" marker-end="none" stroke-miterlimit="79.8403193612775" fill-opacity="0.098039"/>
    <path d="M 9.203,17.537 C 10.555,13.199 16.899,11.305 23.36,13.31 C 29.821,15.315 33.971,20.466 32.621,24.804 C 31.269,29.143 24.925,31.036 18.465,29.031 C 12.003,27.026 7.853,21.875 9.203,17.537 Z" stroke="none" stroke-width="0.5" fill="#ffffff" stroke-opacity="0.125490" marker-start="none" marker-end="none" stroke-miterlimit="79.8403193612775" fill-opacity="0.125490"/>
    <path d="M 9.94,18.417 C 11.169,14.471 16.963,12.756 22.869,14.589 C 28.775,16.422 32.573,21.114 31.345,25.059 C 30.116,29.005 24.322,30.72 18.417,28.887 C 12.51,27.054 8.712,22.362 9.94,18.417 Z" stroke="none" stroke-width="0.5" fill="#ffffff" stroke-opacity="0.149020" marker-start="none" marker-end="none" stroke-miterlimit="79.8403193612775" fill-opacity="0.149020"/>
    <path d="M 10.843,19.496 C 11.922,16.031 17.041,14.536 22.266,16.158 C 27.492,17.779 30.859,21.909 29.781,25.373 C 28.702,28.837 23.583,30.332 18.358,28.711 C 13.132,27.089 9.765,22.959 10.843,19.496 Z" stroke="none" stroke-width="0.5" fill="#ffffff" stroke-opacity="0.176471" marker-start="none" marker-end="none" stroke-miterlimit="79.8403193612775" fill-opacity="0.176471"/>
    <path d="M 11.978,20.85 C 12.868,17.991 17.14,16.771 21.51,18.128 C 25.88,19.483 28.706,22.907 27.816,25.766 C 26.926,28.626 22.654,29.845 18.284,28.489 C 13.913,27.133 11.088,23.71 11.978,20.85 Z" stroke="none" stroke-width="0.5" fill="#ffffff" stroke-opacity="0.200000" marker-start="none" marker-end="none" stroke-miterlimit="79.8403193612775" fill-opacity="0.200000"/>
    <path d="M 13.445,22.602 C 14.091,20.525 17.267,19.661 20.532,20.675 C 23.797,21.688 25.922,24.198 25.275,26.275 C 24.629,28.353 21.453,29.216 18.188,28.202 C 14.923,27.19 12.798,24.679 13.445,22.602 Z" stroke="none" stroke-width="0.5" fill="#ffffff" stroke-opacity="0.227451" marker-start="none" marker-end="none" stroke-miterlimit="79.8403193612775" fill-opacity="0.227451"/>
    <path d="M 18.06,27.818 C 19.84,28.371 21.544,27.986 21.863,26.959 C 22.183,25.932 20.998,24.649 19.219,24.097 C 17.439,23.544 15.735,23.929 15.416,24.956 C 15.096,25.983 16.281,27.266 18.06,27.818 Z" stroke="none" stroke-width="0.5" fill="#ffffff" stroke-opacity="0.250980" marker-start="none" marker-end="none" stroke-miterlimit="79.8403193612775" fill-opacity="0.250980"/>
    <path d="M 7.327,19.197 C 8.181,21.136 9.356,22.959 11.046,24.436 C 11.525,24.855 12.043,25.212 12.578,25.527 C 12.864,25.696 13.167,25.832 13.456,25.992 C 12.973,25.613 12.491,25.205 12.03,24.758 C 11.014,23.773 10.247,22.606 9.614,21.418 C 8.324,19.003 7.544,16.272 7.106,13.43 C 6.765,11.226 6.548,8.894 6.631,6.501 L 5.133,6.477 C 5.056,11.093 5.665,15.423 7.327,19.197 Z" stroke-width="0.5" stroke="none" fill="#ffffff" fill-rule="evenodd" marker-start="none" marker-end="none" stroke-miterlimit="79.8403193612775" fill-opacity="0.117647"/>
    <path d="M 41.301,6.326 L 39.053,6.356 C 39.101,9.188 38.892,11.922 38.418,14.516 C 38.156,15.946 37.863,17.362 37.427,18.711 C 36.467,21.678 35.151,24.602 32.602,26.662 C 33.256,26.387 33.888,26.063 34.47,25.638 C 36.735,23.979 38.292,21.549 39.264,19.051 C 40.337,16.291 40.974,13.294 41.198,10.119 C 41.285,8.879 41.301,7.616 41.301,6.326 Z" stroke-width="0.5" stroke="none" fill="#ffffff" fill-rule="evenodd" marker-start="none" marker-end="none" stroke-miterlimit="79.8403193612775" fill-opacity="0.117647"/>
    <path d="M 21.516,34.194 C 21.739,33.444 22.849,32.447 24.04,33.096 C 25.49,33.251 25.698,34.707 25.475,35.457 C 25.253,36.208 24.185,36.534 23.092,36.186 C 22.001,35.837 21.294,34.945 21.516,34.194 Z" stroke="none" stroke-width="0.5" fill="#ffffff" stroke-opacity="0.200000" marker-start="none" marker-end="none" stroke-miterlimit="79.8403193612775" fill-opacity="0.200000"/>
    <path d="M 21.883,34.651 C 22.044,34.106 22.838,33.874 23.655,34.135 C 24.471,34.395 25.002,35.049 24.84,35.594 C 24.679,36.14 23.885,36.37 23.068,36.11 C 22.252,35.85 21.721,35.196 21.883,34.651 Z" stroke-opacity="0.282353" stroke="none" stroke-width="0.5" fill="#ffffff" marker-start="none" marker-end="none" stroke-miterlimit="79.8403193612775" fill-opacity="0.282353"/>
    <path d="M 23.077,36.092 C 23.52,36.234 23.947,36.13 24.027,35.861 C 24.107,35.592 23.811,35.257 23.366,35.116 C 22.921,34.973 22.496,35.077 22.415,35.346 C 22.335,35.616 22.631,35.95 23.077,36.092 Z" stroke-opacity="0.545098" stroke="none" stroke-width="0.5" fill="#ffffff" marker-start="none" marker-end="none" stroke-miterlimit="79.8403193612775" fill-opacity="0.545098"/>
   </g>
  </g>
 </g>
</svg>
