<?xml version="1.0" encoding="UTF-8" standalone="no"?>
<!-- Generator: Adobe Illustrator 14.0.0, SVG Export Plug-In . SVG Version: 6.00 Build 43363)  -->

<svg
   xmlns:dc="http://purl.org/dc/elements/1.1/"
   xmlns:cc="http://creativecommons.org/ns#"
   xmlns:rdf="http://www.w3.org/1999/02/22-rdf-syntax-ns#"
   xmlns:svg="http://www.w3.org/2000/svg"
   xmlns="http://www.w3.org/2000/svg"
   xmlns:xlink="http://www.w3.org/1999/xlink"
   xmlns:sodipodi="http://sodipodi.sourceforge.net/DTD/sodipodi-0.dtd"
   xmlns:inkscape="http://www.inkscape.org/namespaces/inkscape"
   version="1.1"
   x="0px"
   y="0px"
   width="290"
   height="195.17743"
   viewBox="0 0 290 195.17743"
   xml:space="preserve"
   id="svg2"
   inkscape:version="0.47 r22583"
   sodipodi:docname="meegotouch-navigationbar.svg"><metadata
   id="metadata362"><rdf:RDF><cc:Work
       rdf:about=""><dc:format>image/svg+xml</dc:format><dc:type
         rdf:resource="http://purl.org/dc/dcmitype/StillImage" /></cc:Work></rdf:RDF></metadata><defs
   id="defs360"><inkscape:perspective
   sodipodi:type="inkscape:persp3d"
   inkscape:vp_x="0 : 550 : 1"
   inkscape:vp_y="0 : 1000 : 0"
   inkscape:vp_z="290 : 550 : 1"
   inkscape:persp3d-origin="145 : 366.66667 : 1"
   id="perspective364" />
	
<linearGradient
   inkscape:collect="always"
   xlink:href="#SVGID_1_"
   id="linearGradient3368"
   gradientUnits="userSpaceOnUse"
   gradientTransform="matrix(-1,0,0,1,3070,0)"
   x1="2850"
   y1="905"
   x2="2910"
   y2="905" /><linearGradient
   inkscape:collect="always"
   xlink:href="#SVGID_2_"
   id="linearGradient3370"
   gradientUnits="userSpaceOnUse"
   gradientTransform="matrix(-1,0,0,1,2910,0)"
   x1="2830"
   y1="905"
   x2="2890"
   y2="905" /><linearGradient
   inkscape:collect="always"
   xlink:href="#SVGID_3_"
   id="linearGradient3372"
   gradientUnits="userSpaceOnUse"
   x1="160"
   y1="764"
   x2="220"
   y2="764" /><linearGradient
   inkscape:collect="always"
   xlink:href="#SVGID_4_"
   id="linearGradient3374"
   gradientUnits="userSpaceOnUse"
   x1="20"
   y1="764"
   x2="80"
   y2="764" /><linearGradient
   inkscape:collect="always"
   xlink:href="#SVGID_5_"
   id="linearGradient3376"
   gradientUnits="userSpaceOnUse"
   gradientTransform="matrix(-1,0,0,1,2910,0)"
   x1="2830"
   y1="695"
   x2="2890"
   y2="695" /><linearGradient
   inkscape:collect="always"
   xlink:href="#SVGID_6_"
   id="linearGradient3378"
   gradientUnits="userSpaceOnUse"
   x1="20"
   y1="554"
   x2="80"
   y2="554" /><linearGradient
   inkscape:collect="always"
   xlink:href="#SVGID_7_"
   id="linearGradient3380"
   gradientUnits="userSpaceOnUse"
   gradientTransform="matrix(-1,0,0,-1,2910,-645.1016)"
   x1="2802"
   y1="-915.60162"
   x2="2890"
   y2="-915.60162" /><linearGradient
   inkscape:collect="always"
   xlink:href="#SVGID_8_"
   id="linearGradient3382"
   gradientUnits="userSpaceOnUse"
   gradientTransform="matrix(1,0,0,-1,0,-927.1016)"
   x1="20"
   y1="-1057.6016"
   x2="108"
   y2="-1057.6016" /><linearGradient
   inkscape:collect="always"
   xlink:href="#SVGID_9_"
   id="linearGradient3384"
   gradientUnits="userSpaceOnUse"
   x1="234.2529"
   y1="120"
   x2="234.2529"
   y2="108" /><linearGradient
   inkscape:collect="always"
   xlink:href="#SVGID_10_"
   id="linearGradient3386"
   gradientUnits="userSpaceOnUse"
   x1="134.2534"
   y1="60"
   x2="134.2534"
   y2="48" />
		
		
		
		
		
		
		
		
		
		
		
		
		
		
		
		
		
		
		
		
		
		
		
		
		
		
		
		
		
		
		
		
		
	<linearGradient
   inkscape:collect="always"
   xlink:href="#SVGID_10_"
   id="linearGradient3597"
   gradientUnits="userSpaceOnUse"
   x1="134.2534"
   y1="60"
   x2="134.2534"
   y2="48" /><linearGradient
   inkscape:collect="always"
   xlink:href="#SVGID_10_"
   id="linearGradient3601"
   gradientUnits="userSpaceOnUse"
   x1="134.2534"
   y1="60"
   x2="134.2534"
   y2="48" /></defs><sodipodi:namedview
   pagecolor="#ffffff"
   bordercolor="#666666"
   borderopacity="1"
   objecttolerance="10"
   gridtolerance="10"
   guidetolerance="10"
   inkscape:pageopacity="0"
   inkscape:pageshadow="2"
   inkscape:window-width="1680"
   inkscape:window-height="976"
   id="namedview358"
   showgrid="true"
   inkscape:zoom="2"
   inkscape:cx="118.03991"
   inkscape:cy="42.209292"
   inkscape:window-x="0"
   inkscape:window-y="25"
   inkscape:window-maximized="1"
   inkscape:current-layer="svg2"><inkscape:grid
     type="xygrid"
     id="grid3599"
     empspacing="5"
     visible="true"
     enabled="true"
     snapvisiblegridlinesonly="true" /><sodipodi:guide
     position="0,-904.82257"
     orientation="0,290"
     id="guide3026" /><sodipodi:guide
     position="290,-904.82257"
     orientation="-1100,0"
     id="guide3028" /><sodipodi:guide
     position="290,195.17743"
     orientation="0,-290"
     id="guide3030" /><sodipodi:guide
     position="0,195.17743"
     orientation="1100,0"
     id="guide3032" /><sodipodi:guide
     position="0,-904.82257"
     orientation="0,290"
     id="guide3034" /><sodipodi:guide
     position="290,-904.82257"
     orientation="-1100,0"
     id="guide3036" /><sodipodi:guide
     position="290,195.17743"
     orientation="0,-290"
     id="guide3038" /><sodipodi:guide
     position="0,195.17743"
     orientation="1100,0"
     id="guide3040" /></sodipodi:namedview>
<g
   id="meegotouch-navigationbar-layer">
</g>
<g
   id="duinavigationbarThemeTemplateHelper"
   transform="scale(1,0.17743403)">
			<g
   id="g8">
				<path
   style="fill:#b3b3b3"
   d="m 16,1099 c -8.271,0 -15,-6.729 -15,-15 V 16 C 1,7.729 7.729,1 16,1 h 258 c 8.271,0 15,6.729 15,15 v 1068 c 0,8.271 -6.729,15 -15,15 H 16 z"
   id="path10" />
				<g
   id="g12">
					<path
   d="m 274,2 c 7.72,0 14,6.28 14,14 v 1068 c 0,7.72 -6.28,14 -14,14 H 16 c -7.72,0 -14,-6.28 -14,-14 V 16 C 2,8.28 8.28,2 16,2 h 258 m 0,-2 H 16 C 7.2,0 0,7.2 0,16 v 1068 c 0,8.8 7.2,16 16,16 h 258 c 8.8,0 16,-7.2 16,-16 V 16 C 290,7.2 282.8,0 274,0 l 0,0 z"
   id="path14" />
				</g>
			</g>
			<g
   id="g16">
				<path
   d="m 76.059,34.333 -0.461,-1.466 c -0.631,1.086 -1.707,1.63 -3.23,1.63 -1.416,0 -2.48,-0.501 -3.195,-1.502 -0.713,-1.001 -1.07,-2.565 -1.07,-4.691 0,-1.784 0.381,-3.241 1.143,-4.373 0.762,-1.132 1.844,-1.697 3.246,-1.697 1.148,0 2.01,0.345 2.584,1.036 v -5.168 h 2.184 v 16.231 h -1.201 z m -0.913,-5.435 -0.012,-0.677 c 0,-1.777 -0.199,-2.978 -0.6,-3.599 -0.4,-0.623 -0.969,-0.934 -1.707,-0.934 -0.82,0 -1.436,0.379 -1.846,1.139 -0.41,0.758 -0.615,1.896 -0.615,3.414 0,1.593 0.197,2.785 0.596,3.578 0.395,0.793 0.99,1.189 1.783,1.189 0.771,0 1.365,-0.287 1.779,-0.861 0.414,-0.574 0.622,-1.656 0.622,-3.249 z"
   id="path18" />
				<path
   d="m 83.84,34.497 c -1.217,0 -2.127,-0.315 -2.732,-0.948 C 80.503,32.916 80.2,31.968 80.2,30.703 v -8.295 h 2.186 v 7.916 c 0,0.895 0.156,1.566 0.471,2.015 0.315,0.449 0.789,0.671 1.426,0.671 0.793,0 1.406,-0.301 1.84,-0.902 0.436,-0.602 0.652,-1.384 0.652,-2.348 v -7.352 h 2.184 v 11.925 h -1.211 l -0.439,-1.764 c -0.762,1.285 -1.916,1.928 -3.469,1.928 z"
   id="path20" />
				<path
   d="m 94.441,34.333 h -2.184 v -10.5 h -1.363 v -1.425 h 3.547 V 34.333 z M 93.355,18.225 c 0.334,0 0.623,0.123 0.867,0.369 0.242,0.246 0.363,0.536 0.363,0.871 0,0.342 -0.119,0.635 -0.359,0.877 -0.238,0.242 -0.529,0.363 -0.871,0.363 -0.35,0 -0.643,-0.121 -0.883,-0.363 -0.238,-0.242 -0.357,-0.535 -0.357,-0.877 0,-0.349 0.119,-0.643 0.357,-0.882 0.241,-0.239 0.534,-0.358 0.883,-0.358 z"
   id="path22" />
				<path
   d="m 106.307,34.333 h -2.184 v -7.916 c 0,-0.896 -0.158,-1.567 -0.473,-2.015 -0.315,-0.448 -0.785,-0.672 -1.414,-0.672 -0.793,0 -1.408,0.301 -1.846,0.902 -0.438,0.601 -0.656,1.385 -0.656,2.348 v 7.353 H 97.548 V 22.408 h 1.221 l 0.441,1.764 c 0.758,-1.293 1.914,-1.938 3.465,-1.938 1.211,0 2.119,0.317 2.723,0.954 0.605,0.635 0.908,1.586 0.908,2.85 v 8.295 z"
   id="path24" />
				<path
   d="m 115.432,32.61 c -0.738,1.258 -1.887,1.887 -3.445,1.887 -1.086,0 -1.932,-0.306 -2.537,-0.918 -0.605,-0.611 -0.908,-1.468 -0.908,-2.568 0,-1.135 0.311,-1.98 0.934,-2.538 0.621,-0.557 1.367,-0.905 2.234,-1.046 0.869,-0.14 1.926,-0.21 3.17,-0.21 v -1.404 c 0,-1.389 -0.742,-2.082 -2.227,-2.082 -0.854,0 -1.896,0.182 -3.127,0.543 v -1.527 c 1.238,-0.342 2.414,-0.513 3.527,-0.513 1.312,0 2.309,0.316 2.99,0.948 0.68,0.633 1.02,1.564 1.02,2.795 v 8.356 h -1.189 l -0.442,-1.723 z m -0.553,-4.09 h -1.221 c -0.979,0 -1.711,0.207 -2.199,0.62 -0.488,0.413 -0.734,1.03 -0.734,1.851 0,0.67 0.15,1.171 0.447,1.502 0.297,0.332 0.742,0.498 1.338,0.498 0.752,0 1.334,-0.24 1.748,-0.719 0.414,-0.479 0.621,-1.127 0.621,-1.947 V 28.52 z"
   id="path26" />
				<path
   d="m 122.127,34.333 -3.445,-11.925 h 2.225 l 2.605,9.885 2.717,-9.885 h 1.969 l -3.588,11.925 h -2.483 z"
   id="path28" />
				<path
   d="m 132.33,34.333 h -2.184 v -10.5 h -1.363 v -1.425 h 3.547 v 11.925 z m -1.086,-16.108 c 0.334,0 0.623,0.123 0.865,0.369 0.242,0.246 0.365,0.536 0.365,0.871 0,0.342 -0.121,0.635 -0.359,0.877 -0.24,0.242 -0.531,0.363 -0.871,0.363 -0.35,0 -0.645,-0.121 -0.883,-0.363 -0.24,-0.242 -0.359,-0.535 -0.359,-0.877 0,-0.349 0.119,-0.643 0.359,-0.882 0.239,-0.239 0.534,-0.358 0.883,-0.358 z"
   id="path30" />
				<path
   d="m 142.307,23.854 0.461,-1.445 h 1.221 V 33.77 c 0,1.285 -0.398,2.281 -1.195,2.988 -0.795,0.708 -1.889,1.062 -3.275,1.062 -1.135,0 -2.424,-0.181 -3.865,-0.544 v -1.537 c 1.504,0.361 2.707,0.543 3.609,0.543 0.785,0 1.361,-0.146 1.727,-0.436 0.367,-0.291 0.594,-0.67 0.682,-1.139 0.09,-0.468 0.135,-1.133 0.135,-1.994 v -0.308 c -0.582,0.834 -1.512,1.251 -2.789,1.251 -1.361,0 -2.381,-0.47 -3.061,-1.41 -0.682,-0.939 -1.021,-2.35 -1.021,-4.229 0,-1.798 0.377,-3.211 1.129,-4.24 0.752,-1.028 1.838,-1.543 3.26,-1.543 1.364,-0.001 2.359,0.539 2.982,1.62 z m -2.789,8.316 c 0.758,0 1.336,-0.272 1.732,-0.815 0.396,-0.544 0.596,-1.714 0.596,-3.513 0,-1.381 -0.188,-2.418 -0.559,-3.111 -0.373,-0.693 -0.93,-1.041 -1.668,-1.041 -0.785,0 -1.385,0.297 -1.799,0.893 -0.414,0.594 -0.621,1.682 -0.621,3.26 0,1.443 0.193,2.525 0.58,3.246 0.387,0.721 0.965,1.081 1.739,1.081 z"
   id="path32" />
				<path
   d="m 153.145,32.61 c -0.738,1.258 -1.887,1.887 -3.445,1.887 -1.086,0 -1.932,-0.306 -2.537,-0.918 -0.605,-0.611 -0.908,-1.468 -0.908,-2.568 0,-1.135 0.311,-1.98 0.934,-2.538 0.621,-0.557 1.367,-0.905 2.234,-1.046 0.869,-0.14 1.926,-0.21 3.17,-0.21 v -1.404 c 0,-1.389 -0.742,-2.082 -2.227,-2.082 -0.854,0 -1.896,0.182 -3.127,0.543 v -1.527 c 1.238,-0.342 2.414,-0.513 3.527,-0.513 1.312,0 2.309,0.316 2.99,0.948 0.68,0.633 1.02,1.564 1.02,2.795 v 8.356 h -1.189 l -0.442,-1.723 z m -0.553,-4.09 h -1.221 c -0.979,0 -1.711,0.207 -2.199,0.62 -0.488,0.413 -0.734,1.03 -0.734,1.851 0,0.67 0.15,1.171 0.447,1.502 0.297,0.332 0.742,0.498 1.338,0.498 0.752,0 1.334,-0.24 1.748,-0.719 0.414,-0.479 0.621,-1.127 0.621,-1.947 V 28.52 z"
   id="path34" />
				<path
   d="m 160.764,34.497 c -0.93,0 -1.611,-0.217 -2.041,-0.651 -0.432,-0.434 -0.646,-1.126 -0.646,-2.076 v -7.937 h -1.568 v -0.82 l 3.189,-3.251 h 0.562 v 2.646 h 2.902 v 1.425 h -2.902 v 7.577 c 0,0.65 0.107,1.079 0.318,1.287 0.213,0.209 0.533,0.312 0.965,0.312 0.443,0 1.045,-0.099 1.805,-0.297 v 1.415 c -0.916,0.247 -1.778,0.37 -2.584,0.37 z"
   id="path36" />
				<path
   d="m 167.51,34.333 h -2.184 v -10.5 h -1.363 v -1.425 h 3.547 v 11.925 z m -1.086,-16.108 c 0.334,0 0.623,0.123 0.867,0.369 0.242,0.246 0.363,0.536 0.363,0.871 0,0.342 -0.119,0.635 -0.359,0.877 -0.238,0.242 -0.529,0.363 -0.871,0.363 -0.35,0 -0.643,-0.121 -0.883,-0.363 -0.238,-0.242 -0.357,-0.535 -0.357,-0.877 0,-0.349 0.119,-0.643 0.357,-0.882 0.24,-0.239 0.533,-0.358 0.883,-0.358 z"
   id="path38" />
				<path
   d="m 174.924,34.497 c -1.605,0 -2.809,-0.526 -3.609,-1.579 -0.799,-1.053 -1.199,-2.632 -1.199,-4.737 0,-1.832 0.416,-3.281 1.246,-4.348 0.83,-1.067 2.018,-1.6 3.562,-1.6 1.559,0 2.75,0.526 3.574,1.579 0.824,1.053 1.236,2.522 1.236,4.409 0,1.941 -0.385,3.473 -1.154,4.594 -0.769,1.121 -1.988,1.682 -3.656,1.682 z m 0,-1.405 c 0.842,0 1.477,-0.381 1.902,-1.143 0.428,-0.762 0.641,-2.039 0.641,-3.83 0,-1.265 -0.219,-2.326 -0.656,-3.184 -0.437,-0.858 -1.066,-1.287 -1.887,-1.287 -0.834,0 -1.465,0.387 -1.896,1.158 -0.43,0.773 -0.646,1.877 -0.646,3.312 0,1.613 0.217,2.846 0.646,3.696 0.431,0.853 1.062,1.278 1.896,1.278 z"
   id="path40" />
				<path
   d="m 190.963,34.333 h -2.186 v -7.916 c 0,-0.896 -0.156,-1.567 -0.471,-2.015 -0.315,-0.448 -0.787,-0.672 -1.416,-0.672 -0.793,0 -1.408,0.301 -1.846,0.902 -0.438,0.601 -0.656,1.385 -0.656,2.348 v 7.353 h -2.184 V 22.408 h 1.221 l 0.441,1.764 c 0.758,-1.293 1.912,-1.938 3.465,-1.938 1.211,0 2.117,0.317 2.723,0.954 0.605,0.635 0.908,1.586 0.908,2.85 v 8.295 z"
   id="path42" />
				<path
   d="m 196.09,18.102 v 5.414 c 0.779,-0.855 1.746,-1.282 2.9,-1.282 1.334,0 2.336,0.492 3.006,1.477 0.67,0.985 1.004,2.46 1.004,4.429 0,1.969 -0.451,3.511 -1.354,4.624 -0.902,1.115 -2.143,1.672 -3.723,1.672 -1.551,0 -2.891,-0.068 -4.02,-0.205 V 18.102 h 2.187 z m 0,10.222 v 4.521 c 0.635,0.082 1.203,0.123 1.701,0.123 1.006,0 1.746,-0.367 2.225,-1.102 0.479,-0.735 0.719,-1.998 0.719,-3.789 0,-1.449 -0.188,-2.536 -0.564,-3.261 -0.375,-0.725 -0.936,-1.087 -1.682,-1.087 -0.725,0 -1.262,0.219 -1.609,0.656 -0.35,0.438 -0.568,0.969 -0.656,1.595 -0.091,0.626 -0.134,1.408 -0.134,2.344 z"
   id="path44" />
				<path
   d="m 211.654,32.61 c -0.738,1.258 -1.887,1.887 -3.445,1.887 -1.086,0 -1.932,-0.306 -2.537,-0.918 -0.605,-0.611 -0.908,-1.468 -0.908,-2.568 0,-1.135 0.311,-1.98 0.934,-2.538 0.621,-0.557 1.367,-0.905 2.234,-1.046 0.869,-0.14 1.926,-0.21 3.17,-0.21 v -1.404 c 0,-1.389 -0.742,-2.082 -2.227,-2.082 -0.854,0 -1.896,0.182 -3.127,0.543 v -1.527 c 1.238,-0.342 2.414,-0.513 3.527,-0.513 1.312,0 2.309,0.316 2.99,0.948 0.68,0.633 1.02,1.564 1.02,2.795 v 8.356 h -1.189 l -0.442,-1.723 z m -0.552,-4.09 h -1.221 c -0.979,0 -1.711,0.207 -2.199,0.62 -0.488,0.413 -0.734,1.03 -0.734,1.851 0,0.67 0.15,1.171 0.447,1.502 0.297,0.332 0.742,0.498 1.338,0.498 0.752,0 1.334,-0.24 1.748,-0.719 0.414,-0.479 0.621,-1.127 0.621,-1.947 V 28.52 z"
   id="path46" />
				<path
   d="m 217.447,22.408 0.502,1.988 c 0.664,-1.4 1.818,-2.102 3.467,-2.102 0.219,0 0.379,0.01 0.482,0.031 v 1.988 c -0.172,-0.014 -0.428,-0.02 -0.77,-0.02 -0.938,0 -1.623,0.224 -2.061,0.671 -0.438,0.448 -0.656,1.147 -0.656,2.097 v 7.271 h -2.186 V 22.408 h 1.222 z"
   id="path48" />
			</g>
		</g><g
   id="meegotouch-button-navigationbar-home-background-pressed"
   transform="translate(0,-140)"
   inkscape:label="#meegotouch-button-navigationbar-close-background-pressed">
			<rect
   x="118"
   y="242"
   style="fill:#ffffff"
   width="88"
   height="59"
   id="rect273" />
			<rect
   x="118"
   y="241"
   width="88"
   height="59"
   id="rect275" />
			<path
   style="fill:#d0d2d3"
   d="m 206,300 v -51 c 0,-4.4 -3.6,-8 -8,-8 h -80 v 59 h 88 z"
   id="path277" />
		</g><g
   id="meegotouch-button-navigationbar-home-background"
   transform="translate(0,-140)"
   inkscape:label="#meegotouch-button-navigationbar-close-background">
			<rect
   x="20"
   y="242"
   style="fill:#ffffff"
   width="88"
   height="59"
   id="rect280" />
			<rect
   x="20"
   y="241"
   width="88"
   height="59"
   id="rect282" />
			
				<linearGradient
   id="SVGID_7_"
   gradientUnits="userSpaceOnUse"
   x1="2802"
   y1="-915.60162"
   x2="2890"
   y2="-915.60162"
   gradientTransform="matrix(-1,0,0,-1,2910,-645.1016)">
				<stop
   offset="0"
   style="stop-color:#F0EBF2"
   id="stop285" />
				<stop
   offset="1"
   style="stop-color:#FFFFFF"
   id="stop287" />
			</linearGradient>
			<path
   style="fill:url(#linearGradient3380)"
   d="m 108,300 v -51 c 0,-4.4 -3.6,-8 -8,-8 H 20 v 59 h 88 z"
   id="path289" />
		</g><g
   id="meegotouch-button-navigationbar-close-background-pressed"
   transform="translate(0,-70)"
   inkscape:label="#meegotouch-button-navigationbar-home-background-pressed">
			<rect
   x="118"
   y="102"
   style="fill:#ffffff"
   width="88"
   height="59"
   id="rect310" />
			<rect
   x="118"
   y="101"
   width="88"
   height="59"
   id="rect312" />
			<path
   style="fill:#d0d2d3"
   d="m 118,160 v -51 c 0,-4.4 3.6,-8 8,-8 h 80 v 59 h -88 z"
   id="path314" />
		</g><g
   id="meegotouch-button-navigationbar-close-background"
   transform="translate(0,-70)"
   inkscape:label="#meegotouch-button-navigationbar-home-background">
			<rect
   x="20"
   y="102"
   style="fill:#ffffff"
   width="88"
   height="59"
   id="rect317" />
			<rect
   x="20"
   y="101"
   width="88"
   height="59"
   id="rect319" />
			
				<linearGradient
   id="SVGID_8_"
   gradientUnits="userSpaceOnUse"
   x1="20"
   y1="-1057.6016"
   x2="108"
   y2="-1057.6016"
   gradientTransform="matrix(1,0,0,-1,0,-927.1016)">
				<stop
   offset="0"
   style="stop-color:#F0EBF2"
   id="stop322" />
				<stop
   offset="1"
   style="stop-color:#FFFFFF"
   id="stop324" />
			</linearGradient>
			<path
   style="fill:url(#linearGradient3382)"
   d="m 20,160 v -51 c 0,-4.4 3.6,-8 8,-8 h 80 v 59 H 20 z"
   id="path326" />
		</g>
</svg>