<?xml version="1.0" encoding="UTF-8" standalone="no"?>
<!-- Created with Inkscape (http://www.inkscape.org/) -->
<svg
   xmlns:dc="http://purl.org/dc/elements/1.1/"
   xmlns:cc="http://creativecommons.org/ns#"
   xmlns:rdf="http://www.w3.org/1999/02/22-rdf-syntax-ns#"
   xmlns:svg="http://www.w3.org/2000/svg"
   xmlns="http://www.w3.org/2000/svg"
   xmlns:xlink="http://www.w3.org/1999/xlink"
   xmlns:sodipodi="http://sodipodi.sourceforge.net/DTD/sodipodi-0.dtd"
   xmlns:inkscape="http://www.inkscape.org/namespaces/inkscape"
   width="744.09448819"
   height="1052.3622047"
   id="svg2620"
   sodipodi:version="0.32"
   inkscape:version="0.46"
   sodipodi:docname="common#2.svg"
   inkscape:output_extension="org.inkscape.output.svg.inkscape">
  <sodipodi:namedview
     id="base"
     pagecolor="#1a63ff"
     bordercolor="#666666"
     borderopacity="1.0"
     gridtolerance="10000"
     guidetolerance="10"
     objecttolerance="10"
     inkscape:pageopacity="0.7372549"
     inkscape:pageshadow="2"
     inkscape:zoom="0.46942014"
     inkscape:cx="372.04724"
     inkscape:cy="501.03714"
     inkscape:document-units="px"
     inkscape:current-layer="layer1"
     showgrid="false"
     inkscape:window-width="642"
     inkscape:window-height="722"
     inkscape:window-x="0"
     inkscape:window-y="0" />
  <defs
     id="defs2622">
    <linearGradient
       id="path513_1_"
       gradientUnits="userSpaceOnUse"
       x1="5085.1572"
       y1="5338.7754"
       x2="5467.6992"
       y2="5338.7754"
       gradientTransform="matrix(-1,0,0,-1,5627.7393,5911.0137)">
      <stop
         offset="0"
         style="stop-color:#000000"
         id="stop5932" />
      <stop
         offset="0.1413"
         style="stop-color:#000000;stop-opacity:0.8587"
         id="stop5934" />
      <stop
         offset="1"
         style="stop-color:#000000;stop-opacity:0"
         id="stop5936" />
    </linearGradient>
    <linearGradient
       id="path503_1_"
       gradientUnits="userSpaceOnUse"
       x1="-42.46"
       y1="1240.3657"
       x2="340.082"
       y2="1240.3657"
       gradientTransform="translate(202.5,-668.1279)">
      <stop
         offset="0"
         style="stop-color:#000000"
         id="stop5923" />
      <stop
         offset="0.1413"
         style="stop-color:#000000;stop-opacity:0.8587"
         id="stop5925" />
      <stop
         offset="1"
         style="stop-color:#000000;stop-opacity:0"
         id="stop5927" />
    </linearGradient>
    <linearGradient
       id="path491_1_"
       gradientUnits="userSpaceOnUse"
       x1="148.811"
       y1="1214.7231"
       x2="148.811"
       y2="1266.0078"
       gradientTransform="translate(202.5,-668.1279)">
      <stop
         offset="0"
         style="stop-color:#999999"
         id="stop5899" />
      <stop
         offset="0.1762"
         style="stop-color:#7A7A7A"
         id="stop5901" />
      <stop
         offset="0.4"
         style="stop-color:#4D4D4D"
         id="stop5903" />
      <stop
         offset="0.6688"
         style="stop-color:#4F4F4F"
         id="stop5905" />
      <stop
         offset="0.7656"
         style="stop-color:#565656"
         id="stop5907" />
      <stop
         offset="0.8346"
         style="stop-color:#616161"
         id="stop5909" />
      <stop
         offset="0.8904"
         style="stop-color:#727272"
         id="stop5911" />
      <stop
         offset="0.9382"
         style="stop-color:#888888"
         id="stop5913" />
      <stop
         offset="0.9797"
         style="stop-color:#A3A3A3"
         id="stop5915" />
      <stop
         offset="1"
         style="stop-color:#B3B3B3"
         id="stop5917" />
    </linearGradient>
    <linearGradient
       id="Normal_100_x25__4_"
       gradientUnits="userSpaceOnUse"
       x1="148.813"
       y1="6552.5645"
       x2="148.813"
       y2="6621.8516"
       gradientTransform="matrix(1,0,0,-1,202.5,7159.4453)">
      <stop
         offset="0"
         style="stop-color:#B3B3B3"
         id="stop5892" />
      <stop
         offset="1"
         style="stop-color:#1A1A1A"
         id="stop5894" />
    </linearGradient>
    <linearGradient
       id="path567_1_"
       gradientUnits="userSpaceOnUse"
       x1="5085.1572"
       y1="5498.7852"
       x2="5467.6992"
       y2="5498.7852"
       gradientTransform="matrix(-1,0,0,-1,5627.7393,5911.0137)">
      <stop
         offset="0"
         style="stop-color:#000000"
         id="stop5981" />
      <stop
         offset="0.1413"
         style="stop-color:#000000;stop-opacity:0.8587"
         id="stop5983" />
      <stop
         offset="1"
         style="stop-color:#000000;stop-opacity:0"
         id="stop5985" />
    </linearGradient>
    <linearGradient
       id="path557_1_"
       gradientUnits="userSpaceOnUse"
       x1="-42.46"
       y1="1080.3569"
       x2="340.082"
       y2="1080.3569"
       gradientTransform="translate(202.5,-668.1279)">
      <stop
         offset="0"
         style="stop-color:#000000"
         id="stop5972" />
      <stop
         offset="0.1413"
         style="stop-color:#000000;stop-opacity:0.8587"
         id="stop5974" />
      <stop
         offset="1"
         style="stop-color:#000000;stop-opacity:0"
         id="stop5976" />
    </linearGradient>
    <linearGradient
       id="path543_1_"
       gradientUnits="userSpaceOnUse"
       x1="148.811"
       y1="1054.7153"
       x2="148.811"
       y2="1105.998"
       gradientTransform="translate(202.5,-668.1279)">
      <stop
         offset="0"
         style="stop-color:#676767"
         id="stop5949" />
      <stop
         offset="0.1851"
         style="stop-color:#4A4848"
         id="stop5951" />
      <stop
         offset="0.4"
         style="stop-color:#231F20"
         id="stop5953" />
      <stop
         offset="0.6883"
         style="stop-color:#252122"
         id="stop5955" />
      <stop
         offset="0.7921"
         style="stop-color:#2B2829"
         id="stop5957" />
      <stop
         offset="0.8661"
         style="stop-color:#363334"
         id="stop5959" />
      <stop
         offset="0.9259"
         style="stop-color:#464445"
         id="stop5961" />
      <stop
         offset="0.9766"
         style="stop-color:#5B5A5A"
         id="stop5963" />
      <stop
         offset="1"
         style="stop-color:#676767"
         id="stop5965" />
    </linearGradient>
    <linearGradient
       id="Normal_100_x25__5_"
       gradientUnits="userSpaceOnUse"
       x1="148.813"
       y1="6712.5742"
       x2="148.813"
       y2="6781.8584"
       gradientTransform="matrix(1,0,0,-1,202.5,7159.4453)">
      <stop
         offset="0"
         style="stop-color:#B3B3B3"
         id="stop5942" />
      <stop
         offset="1"
         style="stop-color:#1A1A1A"
         id="stop5944" />
    </linearGradient>
    <linearGradient
       id="path623_1_"
       gradientUnits="userSpaceOnUse"
       x1="-42.46"
       y1="920.3481"
       x2="340.082"
       y2="920.3481"
       gradientTransform="translate(202.5,-668.1279)">
      <stop
         offset="0"
         style="stop-color:#000000"
         id="stop6031" />
      <stop
         offset="0.1413"
         style="stop-color:#000000;stop-opacity:0.8587"
         id="stop6033" />
      <stop
         offset="1"
         style="stop-color:#000000;stop-opacity:0"
         id="stop6035" />
    </linearGradient>
    <linearGradient
       id="path613_1_"
       gradientUnits="userSpaceOnUse"
       x1="5085.1572"
       y1="5658.793"
       x2="5467.6992"
       y2="5658.793"
       gradientTransform="matrix(-1,0,0,-1,5627.7393,5911.0137)">
      <stop
         offset="0"
         style="stop-color:#000000"
         id="stop6022" />
      <stop
         offset="0.1413"
         style="stop-color:#000000;stop-opacity:0.8587"
         id="stop6024" />
      <stop
         offset="1"
         style="stop-color:#000000;stop-opacity:0"
         id="stop6026" />
    </linearGradient>
    <linearGradient
       id="path599_1_"
       gradientUnits="userSpaceOnUse"
       x1="148.811"
       y1="894.7085"
       x2="148.811"
       y2="945.9912"
       gradientTransform="translate(202.5,-668.1279)">
      <stop
         offset="0"
         style="stop-color:#676767"
         id="stop5999" />
      <stop
         offset="0.1851"
         style="stop-color:#4A4848"
         id="stop6001" />
      <stop
         offset="0.4"
         style="stop-color:#231F20"
         id="stop6003" />
      <stop
         offset="0.6883"
         style="stop-color:#252122"
         id="stop6005" />
      <stop
         offset="0.7921"
         style="stop-color:#2B2829"
         id="stop6007" />
      <stop
         offset="0.8661"
         style="stop-color:#363334"
         id="stop6009" />
      <stop
         offset="0.9259"
         style="stop-color:#464445"
         id="stop6011" />
      <stop
         offset="0.9766"
         style="stop-color:#5B5A5A"
         id="stop6013" />
      <stop
         offset="1"
         style="stop-color:#676767"
         id="stop6015" />
    </linearGradient>
    <linearGradient
       id="Normal_100_x25__6_"
       gradientUnits="userSpaceOnUse"
       x1="148.813"
       y1="6872.582"
       x2="148.813"
       y2="6941.8662"
       gradientTransform="matrix(1,0,0,-1,202.5,7159.4453)">
      <stop
         offset="0"
         style="stop-color:#B3B3B3"
         id="stop5992" />
      <stop
         offset="1"
         style="stop-color:#1A1A1A"
         id="stop5994" />
    </linearGradient>
    <linearGradient
       id="Pressed_2_"
       gradientUnits="userSpaceOnUse"
       x1="73.0049"
       y1="6099.8027"
       x2="73.0049"
       y2="6143.8027"
       gradientTransform="matrix(1,0,0,-1,202.5,7159.4453)">
      <stop
         offset="0"
         style="stop-color:#F99F1E"
         id="stop6040" />
      <stop
         offset="0.2691"
         style="stop-color:#F9A223"
         id="stop6042" />
      <stop
         offset="0.6055"
         style="stop-color:#FAAB33"
         id="stop6044" />
      <stop
         offset="0.9764"
         style="stop-color:#FCBA4C"
         id="stop6046" />
      <stop
         offset="1"
         style="stop-color:#FCBB4E"
         id="stop6048" />
    </linearGradient>
    <linearGradient
       id="path649_1_"
       gradientUnits="userSpaceOnUse"
       x1="73.0049"
       y1="6293.3027"
       x2="73.0049"
       y2="6250.3027"
       gradientTransform="matrix(1,0,0,-1,202.5,7159.4453)">
      <stop
         offset="0"
         style="stop-color:#4D4D4D"
         id="stop6057" />
      <stop
         offset="1"
         style="stop-color:#3D3D3D"
         id="stop6059" />
    </linearGradient>
    <linearGradient
       y2="3080.5635"
       x2="472.6123"
       y1="3164.3115"
       x1="472.6123"
       gradientTransform="matrix(1,0,0,-1,202.5,7159.4453)"
       gradientUnits="userSpaceOnUse"
       id="linearGradient11847"
       xlink:href="#circle6055_1_"
       inkscape:collect="always" />
    <linearGradient
       gradientTransform="matrix(1 0 0 -1 202.5 7159.4453)"
       y2="3080.5635"
       x2="472.6123"
       y1="3164.3115"
       x1="472.6123"
       gradientUnits="userSpaceOnUse"
       id="circle6055_1_">
      <stop
         id="stop9238"
         style="stop-color:#A6A6A6"
         offset="0" />
      <stop
         id="stop9240"
         style="stop-color:#000000"
         offset="1" />
    </linearGradient>
    <linearGradient
       y2="3080.5635"
       x2="472.6123"
       y1="3164.3115"
       x1="472.6123"
       gradientTransform="matrix(1,0,0,-1,202.5,7159.4453)"
       gradientUnits="userSpaceOnUse"
       id="linearGradient11849"
       xlink:href="#circle6055_1_"
       inkscape:collect="always" />
    <inkscape:perspective
       sodipodi:type="inkscape:persp3d"
       inkscape:vp_x="0 : 526.18109 : 1"
       inkscape:vp_y="0 : 1000 : 0"
       inkscape:vp_z="744.09448 : 526.18109 : 1"
       inkscape:persp3d-origin="372.04724 : 350.78739 : 1"
       id="perspective2674" />
  </defs>
  <metadata
     id="metadata2625">
    <rdf:RDF>
      <cc:Work
         rdf:about="">
        <dc:format>image/svg+xml</dc:format>
        <dc:type
           rdf:resource="http://purl.org/dc/dcmitype/StillImage" />
      </cc:Work>
    </rdf:RDF>
  </metadata>
  <g
     inkscape:label="Layer 1"
     inkscape:groupmode="layer"
     id="layer1">
    <g
       id="icon-m-info"
       transform="translate(13.764561,854.03158)"
       style="fill:#ffffff;fill-opacity:1">
      <use
         xlink:href="#background_x5F_64"
         width="63.999001"
         height="64"
         id="background_x5F_64_2_"
         x="-31.999001"
         y="-32"
         transform="matrix(1,0,0,-1,32,32)"
         style="fill:#ffffff;fill-opacity:1;overflow:visible" />
      <path
         style="fill:#ffffff;fill-opacity:1"
         d="M 31.998,0 C 14.329,0 0,14.321 0,31.997 C 0,49.67 14.329,64 31.998,64 C 49.676,64 64,49.67 64,31.997 C 64,14.321 49.676,0 31.998,0 z M 34.397,10.12 C 37.391,10.12 39.82,12.505 39.82,15.446 C 39.82,18.388 37.391,20.772 34.397,20.772 C 31.401,20.772 28.974,18.388 28.974,15.446 C 28.975,12.505 31.401,10.12 34.397,10.12 z M 39.82,49.391 C 39.82,49.391 35.944,54.165 30.395,53.391 C 28.01,53.168 26.033,52.233 25.092,50.928 C 24.01,49.701 22.7,46.596 25.522,39.332 C 25.522,39.332 26.778,36.615 27.22,35.565 C 27.215,35.563 27.212,35.563 27.208,35.563 C 27.428,35.044 27.549,34.476 27.549,33.879 C 27.549,31.492 25.611,29.558 23.221,29.558 C 23.131,29.558 23.042,29.561 22.952,29.567 C 24.01,27.831 26.316,26.279 29.218,25.569 C 33.655,24.482 37.802,25.773 38.482,28.449 C 38.641,29.078 38.592,29.728 38.371,30.369 C 37.778,32.616 35.632,38.696 35.632,38.696 L 35.601,38.753 C 35.16,39.962 33.154,45.65 33.622,47.637 C 33.639,47.753 33.68,47.866 33.745,47.976 C 33.779,48.038 33.819,48.094 33.863,48.141 C 34.393,48.768 35.708,49.212 37.247,49.212 C 38.648,49.212 39.863,48.843 40.469,48.305 C 40.568,48.479 40.467,48.801 39.82,49.391 z"
         id="path2389" />
    </g>
    <g
       id="SB-disabled"
       transform="translate(-141.83786,-230.85818)">
      <g
         id="Normal_30_x25__1_"
         style="opacity:0.3">
        <path
           id="path461"
           style="fill:#e6e6e6"
           d="M 551.126,572.238 C 551.126,591.042 534.905,606.427 515.08,606.427 L 187.544,606.427 C 167.719,606.427 151.498,591.041 151.498,572.238 C 151.498,553.433 167.719,538.048 187.544,538.048 L 515.08,538.048 C 534.905,538.048 551.126,553.434 551.126,572.238 z" />
      </g>
      <linearGradient
         id="linearGradient2764"
         gradientUnits="userSpaceOnUse"
         x1="148.813"
         y1="6552.5645"
         x2="148.813"
         y2="6621.8516"
         gradientTransform="matrix(1,0,0,-1,202.5,7159.4453)">
        <stop
           offset="0"
           style="stop-color:#B3B3B3"
           id="stop2766" />
        <stop
           offset="1"
           style="stop-color:#1A1A1A"
           id="stop2768" />
      </linearGradient>
      <path
         id="Normal_100_x25__3_"
         style="fill:url(#Normal_100_x25__4_)"
         d="M 151.951,572.235 C 151.987,590.785 167.138,605.939 185.683,605.976 L 185.683,605.976 L 516.939,605.976 C 535.49,605.939 550.638,590.785 550.671,572.235 L 550.671,572.235 C 550.638,553.679 535.488,538.53 516.939,538.498 L 516.939,538.498 L 185.684,538.498 C 167.138,538.53 151.987,553.681 151.951,572.235 L 151.951,572.235 z M 185.684,606.881 C 166.626,606.881 151.047,591.289 151.047,572.235 L 151.047,572.235 C 151.047,553.178 166.626,537.593 185.684,537.593 L 185.684,537.593 L 516.94,537.593 C 535.997,537.593 551.579,553.178 551.579,572.235 L 551.579,572.235 C 551.579,591.289 535.997,606.881 516.94,606.881 L 516.94,606.881 L 185.684,606.881 L 185.684,606.881 z" />
      <g
         id="Normal_70_x25_"
         style="opacity:0.7">
        <linearGradient
           id="linearGradient2772"
           gradientUnits="userSpaceOnUse"
           x1="148.811"
           y1="1214.7231"
           x2="148.811"
           y2="1266.0078"
           gradientTransform="translate(202.5,-668.1279)">
          <stop
             offset="0"
             style="stop-color:#999999"
             id="stop2774" />
          <stop
             offset="0.1762"
             style="stop-color:#7A7A7A"
             id="stop2776" />
          <stop
             offset="0.4"
             style="stop-color:#4D4D4D"
             id="stop2778" />
          <stop
             offset="0.6688"
             style="stop-color:#4F4F4F"
             id="stop2780" />
          <stop
             offset="0.7656"
             style="stop-color:#565656"
             id="stop2782" />
          <stop
             offset="0.8346"
             style="stop-color:#616161"
             id="stop2784" />
          <stop
             offset="0.8904"
             style="stop-color:#727272"
             id="stop2786" />
          <stop
             offset="0.9382"
             style="stop-color:#888888"
             id="stop2788" />
          <stop
             offset="0.9797"
             style="stop-color:#A3A3A3"
             id="stop2790" />
          <stop
             offset="1"
             style="stop-color:#B3B3B3"
             id="stop2792" />
        </linearGradient>
        <path
           id="path491"
           style="fill:url(#path491_1_)"
           d="M 542.582,572.238 C 542.582,558.134 530.416,546.595 515.548,546.595 L 187.074,546.595 C 172.205,546.595 160.04,558.134 160.04,572.238 C 160.04,586.341 172.206,597.88 187.074,597.88 L 515.548,597.88 C 530.417,597.88 542.582,586.341 542.582,572.238 z" />
        <path
           id="path493"
           style="opacity:0.2;fill:none;stroke:#000020;enable-background:new"
           d="M 542.582,572.238 C 542.582,558.134 530.416,546.595 515.548,546.595 L 187.074,546.595 C 172.205,546.595 160.04,558.134 160.04,572.238 C 160.04,586.341 172.206,597.88 187.074,597.88 L 515.548,597.88 C 530.417,597.88 542.582,586.341 542.582,572.238 z" />
      </g>
      <g
         id="Left_ending_40_x25_"
         style="opacity:0.4;display:none;enable-background:new">
        <linearGradient
           id="linearGradient2797"
           gradientUnits="userSpaceOnUse"
           x1="-42.459999"
           y1="1240.3657"
           x2="340.082"
           y2="1240.3657"
           gradientTransform="translate(202.5,-668.1279)">
          <stop
             offset="0"
             style="stop-color:#000000"
             id="stop2799" />
          <stop
             offset="0.1413"
             style="stop-color:#000000;stop-opacity:0.8587"
             id="stop2801" />
          <stop
             offset="1"
             style="stop-color:#000000;stop-opacity:0"
             id="stop2803" />
        </linearGradient>
        <path
           id="path503"
           style="fill:url(#path503_1_);display:inline"
           d="M 542.582,572.238 C 542.582,558.134 530.416,546.596 515.548,546.596 L 187.074,546.596 C 172.205,546.596 160.04,558.134 160.04,572.238 C 160.04,586.341 172.206,597.879 187.074,597.879 L 515.548,597.879 C 530.417,597.878 542.582,586.34 542.582,572.238 z" />
      </g>
      <g
         id="Right_ending_40_x25__2_"
         style="opacity:0.4;display:none;enable-background:new">
        <linearGradient
           id="linearGradient2807"
           gradientUnits="userSpaceOnUse"
           x1="5085.1572"
           y1="5338.7754"
           x2="5467.6992"
           y2="5338.7754"
           gradientTransform="matrix(-1,0,0,-1,5627.7393,5911.0137)">
          <stop
             offset="0"
             style="stop-color:#000000"
             id="stop2809" />
          <stop
             offset="0.1413"
             style="stop-color:#000000;stop-opacity:0.8587"
             id="stop2811" />
          <stop
             offset="1"
             style="stop-color:#000000;stop-opacity:0"
             id="stop2813" />
        </linearGradient>
        <path
           id="path513"
           style="fill:url(#path513_1_);display:inline"
           d="M 160.04,572.238 C 160.04,586.341 172.206,597.879 187.074,597.879 L 515.548,597.879 C 530.417,597.879 542.582,586.341 542.582,572.238 C 542.582,558.134 530.416,546.596 515.548,546.596 L 187.074,546.596 C 172.206,546.597 160.04,558.135 160.04,572.238 z" />
      </g>
    </g>
    <g
       id="SB-press"
       transform="translate(-137.57728,-192.513)">
      <path
         id="Normal_100_x25__2_"
         style="fill:#ffa000"
         d="M 515.08,378.04 L 187.544,378.04 C 167.719,378.04 151.498,393.425 151.498,412.228 C 151.498,431.032 167.719,446.417 187.544,446.417 L 515.08,446.417 C 534.905,446.417 551.126,431.032 551.126,412.228 C 551.126,393.425 534.905,378.04 515.08,378.04 z M 515.548,437.87 L 187.074,437.87 C 172.205,437.87 160.04,426.331 160.04,412.229 C 160.04,398.126 172.206,386.588 187.074,386.588 L 515.548,386.588 C 530.417,386.588 542.582,398.127 542.582,412.229 C 542.582,426.332 530.417,437.87 515.548,437.87 z" />
      <linearGradient
         id="linearGradient2818"
         gradientUnits="userSpaceOnUse"
         x1="148.813"
         y1="6712.5742"
         x2="148.813"
         y2="6781.8584"
         gradientTransform="matrix(1,0,0,-1,202.5,7159.4453)">
        <stop
           offset="0"
           style="stop-color:#B3B3B3"
           id="stop2820" />
        <stop
           offset="1"
           style="stop-color:#1A1A1A"
           id="stop2822" />
      </linearGradient>
      <path
         id="Normal_100_x25__1_"
         style="fill:url(#Normal_100_x25__5_)"
         d="M 151.951,412.227 C 151.987,430.776 167.138,445.93 185.683,445.967 L 185.683,445.967 L 516.939,445.967 C 535.49,445.93 550.638,430.777 550.671,412.227 L 550.671,412.227 C 550.638,393.672 535.488,378.522 516.939,378.49 L 516.939,378.49 L 185.684,378.49 C 167.138,378.522 151.987,393.672 151.951,412.227 L 151.951,412.227 z M 185.684,446.87 C 166.626,446.87 151.047,431.28 151.047,412.227 L 151.047,412.227 C 151.047,393.171 166.626,377.587 185.684,377.587 L 185.684,377.587 L 516.94,377.587 C 535.997,377.587 551.579,393.171 551.579,412.227 L 551.579,412.227 C 551.579,431.28 535.997,446.87 516.94,446.87 L 516.94,446.87 L 185.684,446.87 L 185.684,446.87 z" />
      <g
         id="Normal_85_x25__1_"
         style="opacity:0.85">
        <linearGradient
           id="linearGradient2826"
           gradientUnits="userSpaceOnUse"
           x1="148.811"
           y1="1054.7153"
           x2="148.811"
           y2="1105.998"
           gradientTransform="translate(202.5,-668.1279)">
          <stop
             offset="0"
             style="stop-color:#676767"
             id="stop2828" />
          <stop
             offset="0.1851"
             style="stop-color:#4A4848"
             id="stop2830" />
          <stop
             offset="0.4"
             style="stop-color:#231F20"
             id="stop2832" />
          <stop
             offset="0.6883"
             style="stop-color:#252122"
             id="stop2834" />
          <stop
             offset="0.7921"
             style="stop-color:#2B2829"
             id="stop2836" />
          <stop
             offset="0.8661"
             style="stop-color:#363334"
             id="stop2838" />
          <stop
             offset="0.9259"
             style="stop-color:#464445"
             id="stop2840" />
          <stop
             offset="0.9766"
             style="stop-color:#5B5A5A"
             id="stop2842" />
          <stop
             offset="1"
             style="stop-color:#676767"
             id="stop2844" />
        </linearGradient>
        <path
           id="path543"
           style="fill:url(#path543_1_)"
           d="M 542.582,412.229 C 542.582,398.126 530.416,386.588 515.548,386.588 L 187.074,386.588 C 172.205,386.588 160.04,398.127 160.04,412.229 C 160.04,426.331 172.206,437.87 187.074,437.87 L 515.548,437.87 C 530.417,437.87 542.582,426.332 542.582,412.229 z" />
        <g
           id="g545"
           style="opacity:0.2">
          <path
             id="path547"
             d="M 515.548,387.588 C 529.903,387.588 541.582,398.642 541.582,412.229 C 541.582,425.816 529.903,436.87 515.548,436.87 L 187.074,436.87 C 172.719,436.87 161.04,425.816 161.04,412.229 C 161.04,398.642 172.719,387.588 187.074,387.588 L 515.548,387.588 M 515.548,386.588 L 187.074,386.588 C 172.205,386.588 160.04,398.127 160.04,412.229 C 160.04,426.331 172.206,437.87 187.074,437.87 L 515.548,437.87 C 530.417,437.87 542.582,426.331 542.582,412.229 C 542.582,398.127 530.417,386.588 515.548,386.588 L 515.548,386.588 z" />
        </g>
      </g>
      <g
         id="Left_ending_40_x25__1_"
         style="opacity:0.4;display:none;enable-background:new">
        <linearGradient
           id="linearGradient2850"
           gradientUnits="userSpaceOnUse"
           x1="-42.459999"
           y1="1080.3569"
           x2="340.082"
           y2="1080.3569"
           gradientTransform="translate(202.5,-668.1279)">
          <stop
             offset="0"
             style="stop-color:#000000"
             id="stop2852" />
          <stop
             offset="0.1413"
             style="stop-color:#000000;stop-opacity:0.8587"
             id="stop2854" />
          <stop
             offset="1"
             style="stop-color:#000000;stop-opacity:0"
             id="stop2856" />
        </linearGradient>
        <path
           id="path557"
           style="fill:url(#path557_1_);display:inline"
           d="M 542.582,412.229 C 542.582,398.126 530.416,386.588 515.548,386.588 L 187.074,386.588 C 172.205,386.588 160.04,398.126 160.04,412.229 C 160.04,426.332 172.206,437.87 187.074,437.87 L 515.548,437.87 C 530.417,437.869 542.582,426.331 542.582,412.229 z" />
      </g>
      <g
         id="Right_ending_40_x25__1_"
         style="opacity:0.4;display:none;enable-background:new">
        <linearGradient
           id="linearGradient2860"
           gradientUnits="userSpaceOnUse"
           x1="5085.1572"
           y1="5498.7852"
           x2="5467.6992"
           y2="5498.7852"
           gradientTransform="matrix(-1,0,0,-1,5627.7393,5911.0137)">
          <stop
             offset="0"
             style="stop-color:#000000"
             id="stop2862" />
          <stop
             offset="0.1413"
             style="stop-color:#000000;stop-opacity:0.8587"
             id="stop2864" />
          <stop
             offset="1"
             style="stop-color:#000000;stop-opacity:0"
             id="stop2866" />
        </linearGradient>
        <path
           id="path567"
           style="fill:url(#path567_1_);display:inline"
           d="M 160.04,412.229 C 160.04,426.332 172.206,437.87 187.074,437.87 L 515.548,437.87 C 530.417,437.87 542.582,426.332 542.582,412.229 C 542.582,398.126 530.416,386.588 515.548,386.588 L 187.074,386.588 C 172.206,386.588 160.04,398.126 160.04,412.229 z" />
      </g>
    </g>
    <g
       id="SB-normal"
       transform="translate(-137.57728,-147.77696)">
      <g
         id="Normal_30_x25_"
         style="opacity:0.3">
        <path
           id="path571"
           style="fill:#e6e6e6"
           d="M 551.126,252.221 C 551.126,271.025 534.905,286.41 515.08,286.41 L 187.544,286.41 C 167.719,286.41 151.498,271.025 151.498,252.221 C 151.498,233.417 167.719,218.033 187.544,218.033 L 515.08,218.033 C 534.905,218.032 551.126,233.417 551.126,252.221 z" />
      </g>
      <linearGradient
         id="linearGradient2872"
         gradientUnits="userSpaceOnUse"
         x1="148.813"
         y1="6872.582"
         x2="148.813"
         y2="6941.8662"
         gradientTransform="matrix(1,0,0,-1,202.5,7159.4453)">
        <stop
           offset="0"
           style="stop-color:#B3B3B3"
           id="stop2874" />
        <stop
           offset="1"
           style="stop-color:#1A1A1A"
           id="stop2876" />
      </linearGradient>
      <path
         id="Normal_100_x25_"
         style="fill:url(#Normal_100_x25__6_)"
         d="M 151.951,252.219 C 151.987,270.768 167.138,285.922 185.683,285.959 L 185.683,285.959 L 516.939,285.959 C 535.49,285.922 550.638,270.768 550.671,252.219 L 550.671,252.219 C 550.638,233.664 535.488,218.514 516.939,218.482 L 516.939,218.482 L 185.684,218.482 C 167.138,218.515 151.987,233.665 151.951,252.219 L 151.951,252.219 z M 185.684,286.862 C 166.626,286.862 151.047,271.272 151.047,252.218 L 151.047,252.218 C 151.047,233.162 166.626,217.578 185.684,217.578 L 185.684,217.578 L 516.94,217.578 C 535.997,217.578 551.579,233.162 551.579,252.218 L 551.579,252.218 C 551.579,271.271 535.997,286.862 516.94,286.862 L 516.94,286.862 L 185.684,286.862 L 185.684,286.862 z" />
      <g
         id="Normal_85_x25_"
         style="opacity:0.85">
        <linearGradient
           id="linearGradient2880"
           gradientUnits="userSpaceOnUse"
           x1="148.811"
           y1="894.7085"
           x2="148.811"
           y2="945.99121"
           gradientTransform="translate(202.5,-668.1279)">
          <stop
             offset="0"
             style="stop-color:#676767"
             id="stop2882" />
          <stop
             offset="0.1851"
             style="stop-color:#4A4848"
             id="stop2884" />
          <stop
             offset="0.4"
             style="stop-color:#231F20"
             id="stop2886" />
          <stop
             offset="0.6883"
             style="stop-color:#252122"
             id="stop2888" />
          <stop
             offset="0.7921"
             style="stop-color:#2B2829"
             id="stop2890" />
          <stop
             offset="0.8661"
             style="stop-color:#363334"
             id="stop2892" />
          <stop
             offset="0.9259"
             style="stop-color:#464445"
             id="stop2894" />
          <stop
             offset="0.9766"
             style="stop-color:#5B5A5A"
             id="stop2896" />
          <stop
             offset="1"
             style="stop-color:#676767"
             id="stop2898" />
        </linearGradient>
        <path
           id="path599"
           style="fill:url(#path599_1_)"
           d="M 542.582,252.222 C 542.582,238.119 530.416,226.581 515.548,226.581 L 187.074,226.581 C 172.205,226.581 160.04,238.12 160.04,252.222 C 160.04,266.325 172.206,277.864 187.074,277.864 L 515.548,277.864 C 530.417,277.862 542.582,266.324 542.582,252.222 z" />
        <g
           id="g601"
           style="opacity:0.2">
          <path
             id="path603"
             d="M 515.548,227.581 C 529.903,227.581 541.582,238.635 541.582,252.222 C 541.582,265.809 529.903,276.864 515.548,276.864 L 187.074,276.864 C 172.719,276.864 161.04,265.81 161.04,252.222 C 161.04,238.635 172.719,227.581 187.074,227.581 L 515.548,227.581 M 515.548,226.581 L 187.074,226.581 C 172.205,226.581 160.04,238.12 160.04,252.222 C 160.04,266.325 172.206,277.864 187.074,277.864 L 515.548,277.864 C 530.417,277.864 542.582,266.325 542.582,252.222 C 542.582,238.119 530.417,226.581 515.548,226.581 L 515.548,226.581 z" />
        </g>
      </g>
      <g
         id="Right_ending_40_x25_"
         style="opacity:0.4;display:none;enable-background:new">
        <linearGradient
           id="linearGradient2904"
           gradientUnits="userSpaceOnUse"
           x1="5085.1572"
           y1="5658.793"
           x2="5467.6992"
           y2="5658.793"
           gradientTransform="matrix(-1,0,0,-1,5627.7393,5911.0137)">
          <stop
             offset="0"
             style="stop-color:#000000"
             id="stop2906" />
          <stop
             offset="0.1413"
             style="stop-color:#000000;stop-opacity:0.8587"
             id="stop2908" />
          <stop
             offset="1"
             style="stop-color:#000000;stop-opacity:0"
             id="stop2910" />
        </linearGradient>
        <path
           id="path613"
           style="fill:url(#path613_1_);display:inline"
           d="M 160.04,252.22 C 160.04,266.324 172.206,277.862 187.074,277.862 L 515.548,277.862 C 530.417,277.862 542.582,266.324 542.582,252.22 C 542.582,238.117 530.416,226.579 515.548,226.579 L 187.074,226.579 C 172.206,226.58 160.04,238.118 160.04,252.22 z" />
      </g>
      <g
         id="Left_ending_40_x25__2_"
         style="opacity:0.4;display:none;enable-background:new">
        <linearGradient
           id="linearGradient2914"
           gradientUnits="userSpaceOnUse"
           x1="-42.459999"
           y1="920.34808"
           x2="340.082"
           y2="920.34808"
           gradientTransform="translate(202.5,-668.1279)">
          <stop
             offset="0"
             style="stop-color:#000000"
             id="stop2916" />
          <stop
             offset="0.1413"
             style="stop-color:#000000;stop-opacity:0.8587"
             id="stop2918" />
          <stop
             offset="1"
             style="stop-color:#000000;stop-opacity:0"
             id="stop2920" />
        </linearGradient>
        <path
           id="path623"
           style="fill:url(#path623_1_);display:inline"
           d="M 542.582,252.22 C 542.582,238.117 530.416,226.579 515.548,226.579 L 187.074,226.579 C 172.205,226.579 160.04,238.117 160.04,252.22 C 160.04,266.324 172.206,277.862 187.074,277.862 L 515.548,277.862 C 530.417,277.861 542.582,266.323 542.582,252.22 z" />
      </g>
    </g>
    <g
       id="Toggle-btn-selected"
       transform="translate(-143.96814,-407.67207)">
      <linearGradient
         id="linearGradient2924"
         gradientUnits="userSpaceOnUse"
         x1="73.004898"
         y1="6099.8027"
         x2="73.004898"
         y2="6143.8027"
         gradientTransform="matrix(1,0,0,-1,202.5,7159.4453)">
        <stop
           offset="0"
           style="stop-color:#F99F1E"
           id="stop2926" />
        <stop
           offset="0.2691"
           style="stop-color:#F9A223"
           id="stop2928" />
        <stop
           offset="0.6055"
           style="stop-color:#FAAB33"
           id="stop2930" />
        <stop
           offset="0.9764"
           style="stop-color:#FCBA4C"
           id="stop2932" />
        <stop
           offset="1"
           style="stop-color:#FCBB4E"
           id="stop2934" />
      </linearGradient>
      <path
         id="Pressed_1_"
         style="fill:url(#Pressed_2_)"
         d="M 400.505,1055.643 C 400.505,1057.843 398.705,1059.643 396.505,1059.643 L 154.505,1059.643 C 152.305,1059.643 150.505,1057.843 150.505,1055.643 L 150.505,1019.643 C 150.505,1017.444 152.305,1015.643 154.505,1015.643 L 396.505,1015.643 C 398.705,1015.643 400.505,1017.444 400.505,1019.643 L 400.505,1055.643 z" />
      <g
         id="Guides_1_"
         style="opacity:0.8">
        <g
           id="Safezone_2_"
           style="opacity:0.5">
          <rect
             id="rect640"
             x="150.505"
             y="993.64301"
             style="fill:none"
             width="250"
             height="88" />
        </g>
      </g>
    </g>
    <g
       id="Toggle-btn-normal"
       transform="translate(-141.83786,-384.2389)">
      <g
         id="Normal">
        <linearGradient
           id="linearGradient2942"
           gradientUnits="userSpaceOnUse"
           x1="73.004898"
           y1="6293.3027"
           x2="73.004898"
           y2="6250.3027"
           gradientTransform="matrix(1,0,0,-1,202.5,7159.4453)">
          <stop
             offset="0"
             style="stop-color:#4D4D4D"
             id="stop2944" />
          <stop
             offset="1"
             style="stop-color:#3D3D3D"
             id="stop2946" />
        </linearGradient>
        <path
           id="path649"
           style="fill:url(#path649_1_)"
           d="M 154.505,909.143 C 152.575,909.143 151.005,907.574 151.005,905.643 L 151.005,869.643 C 151.005,867.713 152.575,866.143 154.505,866.143 L 396.505,866.143 C 398.435,866.143 400.005,867.713 400.005,869.643 L 400.005,905.643 C 400.005,907.574 398.435,909.143 396.505,909.143 L 154.505,909.143 z" />
        <path
           id="path651"
           style="fill:#808080"
           d="M 396.505,866.643 C 398.159,866.643 399.505,867.99 399.505,869.643 L 399.505,905.643 C 399.505,907.297 398.159,908.643 396.505,908.643 L 154.505,908.643 C 152.851,908.643 151.505,907.297 151.505,905.643 L 151.505,869.643 C 151.505,867.99 152.851,866.643 154.505,866.643 L 396.505,866.643 M 396.505,865.643 L 154.505,865.643 C 152.305,865.643 150.505,867.444 150.505,869.643 L 150.505,905.643 C 150.505,907.843 152.305,909.643 154.505,909.643 L 396.505,909.643 C 398.705,909.643 400.505,907.843 400.505,905.643 L 400.505,869.643 C 400.505,867.442 398.705,865.643 396.505,865.643 L 396.505,865.643 z" />
      </g>
      <g
         id="Guides_6_"
         style="opacity:0.8">
        <g
           id="Safezone_1_"
           style="opacity:0.5">
          <rect
             id="rect655"
             x="150.505"
             y="843.64301"
             style="fill:none"
             width="250"
             height="88" />
        </g>
      </g>
    </g>
    <text
       style="font-size:32px;fill:#be1e2d;font-family:NokiaSansOT-Regular"
       id="text658"
       x="144.40408"
       y="-48.34761">Buttons</text>
    <text
       style="font-size:28px;fill:#999999;font-family:NokiaSansOT-Regular"
       id="text682"
       x="16.586815"
       y="26.131239">Simple Buttons (DUI buttons)</text>
    <text
       style="font-size:28px;fill:#999999;font-family:NokiaSansOT-Regular"
       id="text684"
       x="12.32624"
       y="451.70169">Toggle button</text>
    <text
       style="font-size:20px;fill:#ffffff;font-family:NokiaSansOT-Regular"
       id="text8441"
       x="16.586815"
       y="167.33043">SB-normal</text>
    <text
       style="font-size:20px;fill:#ffffff;font-family:NokiaSansOT-Regular"
       id="text8443"
       x="16.446129"
       y="280.08859">SB-press</text>
    <text
       style="font-size:20px;fill:#ffffff;font-family:NokiaSansOT-Regular"
       id="text8445"
       x="12.325751"
       y="401.18484">SB-disabled</text>
    <text
       style="font-size:20px;fill:#ffffff;font-family:NokiaSansOT-Regular"
       id="SB-disabled_2_"
       x="10.711951"
       y="568.31567">Toggle-btn-normal</text>
    <text
       style="font-size:20px;fill:#ffffff;font-family:NokiaSansOT-Regular"
       id="SB-disabled_3_"
       x="8.5816565"
       y="697.5993">Toggle-btn-selected</text>
    <g
       transform="matrix(0,-1,1,0,-3985.3093,1444.6534)"
       id="Toggle-btn-on">
      <path
         d="M 722.394,4118.812 C 722.394,4145.047 701.122,4166.32 674.884,4166.32 C 648.644,4166.32 627.377,4145.049 627.377,4118.812 L 627.377,4036.849 C 627.377,4010.611 648.645,3989.338 674.884,3989.338 C 701.121,3989.338 722.394,4010.609 722.394,4036.849 L 722.394,4118.812 z"
         style="opacity:0.8;fill:#221f1f;enable-background:new"
         id="path11815" />
      <linearGradient
         gradientTransform="matrix(1,0,0,-1,202.5,7159.4453)"
         y2="3080.5635"
         x2="472.6123"
         y1="3164.3115"
         x1="472.6123"
         gradientUnits="userSpaceOnUse"
         id="linearGradient11817">
        <stop
           id="stop11819"
           style="stop-color:#A6A6A6"
           offset="0" />
        <stop
           id="stop11821"
           style="stop-color:#000000"
           offset="1" />
      </linearGradient>
      <circle
         sodipodi:ry="41.874001"
         sodipodi:rx="41.874001"
         sodipodi:cy="4037.0081"
         sodipodi:cx="675.112"
         r="41.874001"
         cy="4037.0081"
         cx="675.112"
         style="opacity:0.5;fill:url(#linearGradient11847);enable-background:new"
         id="circle11823" />
      <text
         xml:space="preserve"
         style="font-size:35.05051422px;font-style:normal;font-weight:normal;fill:#ffff00;fill-opacity:1;stroke:none;stroke-width:1px;stroke-linecap:butt;stroke-linejoin:miter;stroke-opacity:1;font-family:Bitstream Vera Sans"
         x="4148.9346"
         y="-639.03436"
         id="text11825"
         transform="matrix(0,0.9663296,-1.0348436,0,0,0)"><tspan
           sodipodi:role="line"
           id="tspan11827"
           x="4148.9346"
           y="-639.03436">On</tspan></text>
    </g>
    <g
       inkscape:label="#TToggle-btn-off"
       transform="matrix(0,-1,1,0,-3779.7415,1442.5237)"
       id="Toggle-btn-off">
      <path
         d="M 722.394,4118.812 C 722.394,4145.047 701.122,4166.32 674.884,4166.32 C 648.644,4166.32 627.377,4145.049 627.377,4118.812 L 627.377,4036.849 C 627.377,4010.611 648.645,3989.338 674.884,3989.338 C 701.121,3989.338 722.394,4010.609 722.394,4036.849 L 722.394,4118.812 z"
         style="opacity:0.8;fill:#221f1f;enable-background:new"
         id="path11831" />
      <linearGradient
         gradientTransform="matrix(1,0,0,-1,202.5,7159.4453)"
         y2="3080.5635"
         x2="472.6123"
         y1="3164.3115"
         x1="472.6123"
         gradientUnits="userSpaceOnUse"
         id="linearGradient11833">
        <stop
           id="stop11835"
           style="stop-color:#A6A6A6"
           offset="0" />
        <stop
           id="stop11837"
           style="stop-color:#000000"
           offset="1" />
      </linearGradient>
      <circle
         transform="translate(-1.1944154e-8,82.149999)"
         sodipodi:ry="41.874001"
         sodipodi:rx="41.874001"
         sodipodi:cy="4037.0081"
         sodipodi:cx="675.112"
         r="41.874001"
         cy="4037.0081"
         cx="675.112"
         style="opacity:0.5;fill:url(#linearGradient11849);enable-background:new"
         id="circle11839" />
      <g
         style="fill:#ff0000"
         id="g11841"
         inkscape:label="#Toggle-btn-off"
         transform="matrix(0,1.7672406,-1.9167405,0,2665.9368,3125.3326)">
        <text
           id="text11843"
           y="1046.9224"
           x="546.55707"
           style="font-size:20px;font-style:normal;font-weight:normal;fill:#ff0000;fill-opacity:1;stroke:none;stroke-width:1px;stroke-linecap:butt;stroke-linejoin:miter;stroke-opacity:1;font-family:Bitstream Vera Sans"
           xml:space="preserve"><tspan
             y="1046.9224"
             x="546.55707"
             id="tspan11845"
             sodipodi:role="line">Off</tspan></text>
      </g>
    </g>
    <g
       style="fill:#ffffff;fill-opacity:1"
       transform="translate(97.194431,857.97459)"
       id="icon-m-clock">
      <use
         style="fill:#ffffff;fill-opacity:1;overflow:visible"
         transform="matrix(1,0,0,-1,32,32)"
         y="-32"
         x="-31.999001"
         id="background_x5F_64_316_"
         height="64"
         width="63.999001"
         xlink:href="#background_x5F_64" />
      <g
         style="fill:#ffffff;fill-opacity:1"
         id="g2984">
        <path
           id="path2986"
           d="M 32,0 C 14.327,0 0,14.326 0,32 C 0,49.674 14.327,64 32,64 C 49.675,64 64,49.674 64,32 C 64,14.326 49.675,0 32,0 z M 32.002,58.516 C 17.359,58.516 5.488,46.645 5.488,32 C 5.488,17.355 17.359,5.486 32.002,5.486 C 46.646,5.486 58.518,17.355 58.518,32 C 58.518,46.645 46.646,58.516 32.002,58.516 z"
           style="fill:#ffffff;fill-opacity:1" />
        <polygon
           id="polygon2988"
           points="31.656,29.057 20.872,13.854 17.301,16.387 30.601,35.137 30.637,35.111 30.654,35.137 44.047,25.635 41.513,22.062 31.656,29.057 "
           style="fill:#ffffff;fill-opacity:1" />
      </g>
    </g>
  </g>
</svg>
